<svg xmlns="http://www.w3.org/2000/svg" xmlns:xlink="http://www.w3.org/1999/xlink" width="400" zoomAndPan="magnify" viewBox="0 0 300 299.999988" height="400" preserveAspectRatio="xMidYMid meet" version="1.0"><defs><clipPath id="edde7cb393"><path d="M 207 35.183594 L 238 35.183594 L 238 65 L 207 65 Z M 207 35.183594 " clip-rule="nonzero"/></clipPath><clipPath id="fdd781b06c"><path d="M 119 253 L 190 253 L 190 264.683594 L 119 264.683594 Z M 119 253 " clip-rule="nonzero"/></clipPath></defs><path fill="#4590b0" d="M 216.917969 113.335938 L 227.578125 102.679688 L 221.0625 96.171875 C 221.074219 96.132812 221.09375 96.097656 221.121094 96.0625 L 230.117188 96.0625 L 230.117188 81.023438 L 221.054688 81.023438 C 221.054688 80.9375 220.976562 80.871094 220.953125 80.8125 L 227.234375 74.542969 L 216.570312 63.886719 L 210.296875 70.164062 C 210.179688 70.097656 210.058594 70.042969 209.933594 69.996094 L 209.933594 61.335938 L 194.867188 61.335938 L 194.867188 70.03125 C 194.699219 70.089844 194.566406 70.171875 194.414062 70.242188 L 188.410156 64.234375 L 177.75 74.878906 L 183.902344 81.03125 C 183.859375 81.195312 183.804688 81.351562 183.734375 81.503906 L 175.203125 81.503906 L 175.203125 96.597656 L 184.074219 96.597656 C 184.132812 96.707031 184.183594 96.824219 184.222656 96.941406 L 178.101562 103.070312 L 188.757812 113.722656 L 195.171875 107.308594 L 195.382812 107.378906 L 195.382812 116.257812 L 210.46875 116.257812 L 210.46875 107.007812 C 210.511719 107.007812 210.535156 107.007812 210.5625 107.007812 Z M 193.304688 97.761719 C 192.703125 97.160156 192.167969 96.503906 191.695312 95.796875 C 191.222656 95.089844 190.824219 94.34375 190.5 93.558594 C 190.175781 92.773438 189.929688 91.964844 189.765625 91.128906 C 189.597656 90.296875 189.515625 89.453125 189.515625 88.601562 C 189.519531 87.753906 189.601562 86.910156 189.765625 86.078125 C 189.933594 85.242188 190.179688 84.433594 190.507812 83.648438 C 190.832031 82.863281 191.230469 82.117188 191.703125 81.410156 C 192.175781 80.703125 192.714844 80.050781 193.316406 79.449219 C 193.917969 78.847656 194.574219 78.3125 195.28125 77.839844 C 195.988281 77.367188 196.734375 76.96875 197.519531 76.640625 C 198.304688 76.316406 199.117188 76.070312 199.949219 75.90625 C 200.785156 75.738281 201.628906 75.65625 202.476562 75.65625 C 203.328125 75.65625 204.171875 75.738281 205.003906 75.90625 C 205.839844 76.070312 206.648438 76.316406 207.4375 76.640625 C 208.222656 76.96875 208.96875 77.367188 209.675781 77.839844 C 210.382812 78.3125 211.039062 78.847656 211.640625 79.449219 C 212.242188 80.050781 212.777344 80.703125 213.253906 81.410156 C 213.726562 82.117188 214.125 82.863281 214.449219 83.648438 C 214.777344 84.433594 215.023438 85.242188 215.1875 86.078125 C 215.355469 86.910156 215.4375 87.753906 215.4375 88.601562 C 215.441406 89.453125 215.355469 90.296875 215.191406 91.128906 C 215.027344 91.964844 214.78125 92.773438 214.457031 93.558594 C 214.132812 94.34375 213.734375 95.089844 213.261719 95.796875 C 212.789062 96.503906 212.253906 97.160156 211.652344 97.761719 C 211.050781 98.363281 210.394531 98.902344 209.6875 99.375 C 208.976562 99.851562 208.230469 100.25 207.445312 100.578125 C 206.65625 100.902344 205.84375 101.148438 205.007812 101.316406 C 204.175781 101.480469 203.332031 101.566406 202.476562 101.566406 C 201.625 101.566406 200.78125 101.480469 199.945312 101.316406 C 199.109375 101.148438 198.300781 100.902344 197.511719 100.578125 C 196.726562 100.25 195.976562 99.851562 195.269531 99.375 C 194.5625 98.902344 193.90625 98.363281 193.304688 97.761719 Z M 193.304688 97.761719 " fill-opacity="1" fill-rule="nonzero"/><g clip-path="url(#edde7cb393)"><path fill="#4590b0" d="M 218.636719 64.535156 L 226.699219 64.535156 L 226.699219 59.609375 L 226.761719 59.609375 L 230.140625 62.992188 L 235.832031 57.296875 L 232.40625 53.914062 C 232.425781 53.875 232.4375 53.835938 232.449219 53.796875 L 237.191406 53.796875 L 237.191406 45.703125 L 232.449219 45.703125 C 232.429688 45.636719 232.402344 45.570312 232.375 45.507812 L 235.644531 42.238281 L 229.949219 36.550781 L 226.648438 39.835938 C 226.570312 39.800781 226.488281 39.769531 226.40625 39.746094 L 226.40625 35.183594 L 218.339844 35.183594 L 218.339844 39.835938 C 218.253906 39.835938 218.1875 39.921875 218.101562 39.957031 L 214.882812 36.738281 L 209.207031 42.433594 L 212.589844 45.8125 C 212.570312 45.875 212.546875 45.9375 212.523438 45.996094 L 207.855469 45.996094 L 207.855469 54.058594 L 212.707031 54.058594 C 212.722656 54.09375 212.738281 54.128906 212.757812 54.160156 L 209.378906 57.539062 L 215.074219 63.234375 L 218.566406 59.746094 L 218.617188 59.746094 Z M 215.601562 49.722656 C 215.601562 49.269531 215.644531 48.820312 215.734375 48.375 C 215.824219 47.925781 215.957031 47.496094 216.128906 47.074219 C 216.304688 46.65625 216.519531 46.253906 216.773438 45.878906 C 217.023438 45.5 217.3125 45.148438 217.632812 44.828125 C 217.957031 44.507812 218.304688 44.222656 218.683594 43.96875 C 219.0625 43.714844 219.464844 43.503906 219.882812 43.328125 C 220.304688 43.15625 220.738281 43.023438 221.183594 42.9375 C 221.628906 42.847656 222.082031 42.804688 222.535156 42.804688 C 222.992188 42.804688 223.441406 42.847656 223.886719 42.9375 C 224.332031 43.027344 224.765625 43.15625 225.1875 43.332031 C 225.605469 43.503906 226.007812 43.71875 226.386719 43.972656 C 226.761719 44.222656 227.113281 44.511719 227.433594 44.832031 C 227.757812 45.15625 228.042969 45.503906 228.296875 45.882812 C 228.550781 46.261719 228.761719 46.660156 228.9375 47.078125 C 229.113281 47.5 229.242188 47.933594 229.332031 48.378906 C 229.421875 48.824219 229.464844 49.273438 229.464844 49.730469 C 229.464844 50.183594 229.421875 50.636719 229.332031 51.082031 C 229.246094 51.527344 229.113281 51.960938 228.9375 52.378906 C 228.765625 52.800781 228.550781 53.199219 228.300781 53.578125 C 228.046875 53.957031 227.761719 54.304688 227.4375 54.628906 C 227.117188 54.949219 226.769531 55.238281 226.390625 55.492188 C 226.011719 55.742188 225.613281 55.957031 225.191406 56.132812 C 224.773438 56.304688 224.339844 56.4375 223.894531 56.527344 C 223.445312 56.617188 222.996094 56.660156 222.542969 56.660156 C 222.085938 56.660156 221.632812 56.617188 221.1875 56.53125 C 220.738281 56.441406 220.304688 56.308594 219.882812 56.136719 C 219.460938 55.960938 219.0625 55.746094 218.683594 55.496094 C 218.304688 55.242188 217.953125 54.953125 217.628906 54.632812 C 217.308594 54.308594 217.019531 53.960938 216.765625 53.582031 C 216.515625 53.203125 216.300781 52.800781 216.125 52.378906 C 215.953125 51.960938 215.820312 51.523438 215.730469 51.078125 C 215.644531 50.632812 215.597656 50.179688 215.601562 49.722656 Z M 215.601562 49.722656 " fill-opacity="1" fill-rule="nonzero"/></g><path fill="#54c4d0" d="M 136.203125 221.621094 L 173.207031 221.621094 L 173.207031 263.152344 L 136.203125 263.152344 Z M 136.203125 221.621094 " fill-opacity="1" fill-rule="nonzero"/><path fill="#45a6af" d="M 136.203125 221.621094 L 173.207031 221.621094 L 173.207031 236.054688 L 136.203125 236.054688 Z M 136.203125 221.621094 " fill-opacity="1" fill-rule="nonzero"/><g clip-path="url(#fdd781b06c)"><path fill="#45a6af" d="M 127.003906 253.089844 L 182.390625 253.089844 C 182.851562 253.089844 183.304688 253.132812 183.757812 253.222656 C 184.207031 253.3125 184.648438 253.445312 185.070312 253.621094 C 185.496094 253.796875 185.902344 254.011719 186.285156 254.269531 C 186.667969 254.523438 187.019531 254.816406 187.347656 255.140625 C 187.671875 255.464844 187.960938 255.820312 188.21875 256.203125 C 188.472656 256.585938 188.6875 256.988281 188.863281 257.414062 C 189.042969 257.835938 189.175781 258.277344 189.265625 258.726562 C 189.355469 259.179688 189.398438 259.632812 189.398438 260.09375 L 189.398438 264.691406 L 119.984375 264.691406 L 119.984375 260.09375 C 119.984375 259.632812 120.03125 259.175781 120.121094 258.726562 C 120.210938 258.273438 120.34375 257.835938 120.519531 257.410156 C 120.695312 256.984375 120.914062 256.582031 121.167969 256.199219 C 121.425781 255.816406 121.714844 255.460938 122.042969 255.136719 C 122.367188 254.8125 122.722656 254.523438 123.105469 254.265625 C 123.488281 254.011719 123.894531 253.796875 124.320312 253.621094 C 124.746094 253.445312 125.183594 253.3125 125.632812 253.222656 C 126.085938 253.132812 126.542969 253.089844 127.003906 253.089844 Z M 127.003906 253.089844 " fill-opacity="1" fill-rule="nonzero"/></g><path fill="#45a6b0" d="M 58.773438 92.386719 L 250.628906 92.386719 C 251.070312 92.386719 251.511719 92.429688 251.949219 92.519531 C 252.386719 92.605469 252.808594 92.734375 253.21875 92.902344 C 253.628906 93.074219 254.019531 93.28125 254.390625 93.527344 C 254.757812 93.773438 255.101562 94.054688 255.417969 94.371094 C 255.730469 94.683594 256.011719 95.027344 256.257812 95.394531 C 256.503906 95.765625 256.714844 96.15625 256.882812 96.566406 C 257.054688 96.976562 257.183594 97.398438 257.269531 97.835938 C 257.355469 98.273438 257.398438 98.710938 257.398438 99.15625 L 257.398438 219.636719 C 257.398438 220.078125 257.355469 220.519531 257.269531 220.957031 C 257.183594 221.390625 257.054688 221.816406 256.882812 222.226562 C 256.714844 222.636719 256.503906 223.027344 256.257812 223.394531 C 256.011719 223.765625 255.730469 224.105469 255.417969 224.421875 C 255.101562 224.734375 254.757812 225.015625 254.390625 225.261719 C 254.019531 225.511719 253.628906 225.71875 253.21875 225.886719 C 252.808594 226.058594 252.386719 226.1875 251.949219 226.273438 C 251.511719 226.359375 251.070312 226.402344 250.628906 226.402344 L 58.773438 226.402344 C 58.328125 226.402344 57.890625 226.359375 57.453125 226.273438 C 57.015625 226.1875 56.59375 226.058594 56.183594 225.886719 C 55.773438 225.71875 55.382812 225.511719 55.011719 225.261719 C 54.640625 225.015625 54.300781 224.734375 53.984375 224.421875 C 53.671875 224.105469 53.390625 223.765625 53.144531 223.394531 C 52.894531 223.027344 52.6875 222.636719 52.515625 222.226562 C 52.347656 221.816406 52.21875 221.390625 52.132812 220.957031 C 52.046875 220.519531 52 220.078125 52 219.636719 L 52 99.15625 C 52 98.710938 52.046875 98.273438 52.132812 97.835938 C 52.21875 97.398438 52.347656 96.976562 52.515625 96.566406 C 52.6875 96.15625 52.894531 95.765625 53.144531 95.394531 C 53.390625 95.027344 53.671875 94.683594 53.984375 94.371094 C 54.300781 94.054688 54.640625 93.773438 55.011719 93.527344 C 55.382812 93.28125 55.773438 93.074219 56.183594 92.902344 C 56.59375 92.734375 57.015625 92.605469 57.453125 92.519531 C 57.890625 92.429688 58.328125 92.386719 58.773438 92.386719 Z M 58.773438 92.386719 " fill-opacity="1" fill-rule="nonzero"/><path fill="#ffffff" d="M 251.964844 100.550781 L 251.964844 218.242188 C 251.964844 218.601562 251.894531 218.949219 251.753906 219.285156 C 251.617188 219.621094 251.417969 219.914062 251.164062 220.171875 C 250.90625 220.425781 250.613281 220.625 250.277344 220.761719 C 249.941406 220.902344 249.59375 220.96875 249.234375 220.96875 L 60.167969 220.96875 C 59.808594 220.96875 59.457031 220.902344 59.125 220.761719 C 58.789062 220.625 58.496094 220.425781 58.238281 220.171875 C 57.980469 219.914062 57.785156 219.621094 57.644531 219.285156 C 57.507812 218.949219 57.4375 218.601562 57.4375 218.242188 L 57.4375 100.550781 C 57.4375 100.1875 57.507812 99.839844 57.644531 99.507812 C 57.785156 99.171875 57.980469 98.875 58.238281 98.621094 C 58.496094 98.363281 58.789062 98.167969 59.125 98.027344 C 59.457031 97.890625 59.808594 97.820312 60.167969 97.820312 L 249.234375 97.820312 C 249.59375 97.820312 249.941406 97.890625 250.277344 98.027344 C 250.613281 98.167969 250.90625 98.363281 251.164062 98.621094 C 251.417969 98.875 251.617188 99.171875 251.753906 99.507812 C 251.894531 99.839844 251.964844 100.1875 251.964844 100.550781 Z M 251.964844 100.550781 " fill-opacity="1" fill-rule="nonzero"/><path fill="#45a6af" d="M 9.332031 72.53125 L 101.367188 72.53125 C 101.617188 72.53125 101.851562 72.578125 102.082031 72.671875 C 102.308594 72.765625 102.507812 72.902344 102.683594 73.074219 C 102.859375 73.25 102.992188 73.449219 103.085938 73.679688 C 103.179688 73.90625 103.230469 74.144531 103.230469 74.390625 L 103.230469 131.332031 C 103.230469 131.578125 103.179688 131.816406 103.085938 132.046875 C 102.992188 132.273438 102.859375 132.472656 102.683594 132.648438 C 102.507812 132.824219 102.308594 132.957031 102.082031 133.050781 C 101.851562 133.144531 101.617188 133.191406 101.367188 133.191406 L 9.332031 133.191406 C 9.085938 133.191406 8.847656 133.144531 8.621094 133.050781 C 8.390625 132.957031 8.191406 132.824219 8.015625 132.648438 C 7.839844 132.472656 7.707031 132.273438 7.613281 132.042969 C 7.519531 131.816406 7.472656 131.578125 7.472656 131.332031 L 7.472656 74.390625 C 7.472656 74.144531 7.519531 73.90625 7.613281 73.679688 C 7.707031 73.449219 7.839844 73.25 8.015625 73.074219 C 8.191406 72.902344 8.390625 72.765625 8.621094 72.671875 C 8.847656 72.578125 9.085938 72.53125 9.332031 72.53125 Z M 9.332031 72.53125 " fill-opacity="1" fill-rule="nonzero"/><path fill="#ffffff" d="M 101.910156 78.933594 L 101.910156 130.183594 C 101.910156 130.378906 101.871094 130.566406 101.796875 130.746094 C 101.722656 130.925781 101.617188 131.085938 101.480469 131.222656 C 101.339844 131.363281 101.183594 131.46875 101 131.542969 C 100.820312 131.617188 100.632812 131.65625 100.4375 131.65625 L 10.261719 131.65625 C 10.066406 131.65625 9.878906 131.617188 9.699219 131.542969 C 9.519531 131.46875 9.359375 131.363281 9.222656 131.222656 C 9.082031 131.085938 8.976562 130.925781 8.902344 130.746094 C 8.828125 130.566406 8.789062 130.378906 8.789062 130.183594 L 8.789062 78.933594 C 8.789062 78.742188 8.828125 78.554688 8.902344 78.371094 C 8.976562 78.191406 9.082031 78.035156 9.222656 77.894531 C 9.359375 77.757812 9.519531 77.652344 9.699219 77.578125 C 9.878906 77.503906 10.066406 77.464844 10.261719 77.464844 L 100.4375 77.464844 C 100.632812 77.464844 100.820312 77.503906 101 77.578125 C 101.183594 77.652344 101.339844 77.757812 101.480469 77.894531 C 101.617188 78.035156 101.722656 78.191406 101.796875 78.371094 C 101.871094 78.554688 101.910156 78.742188 101.910156 78.933594 Z M 101.910156 78.933594 " fill-opacity="1" fill-rule="nonzero"/><path fill="#ffffff" d="M 101.285156 74.996094 C 101.285156 75.15625 101.253906 75.3125 101.191406 75.460938 C 101.128906 75.609375 101.042969 75.738281 100.929688 75.851562 C 100.816406 75.964844 100.6875 76.054688 100.539062 76.113281 C 100.390625 76.175781 100.234375 76.207031 100.074219 76.207031 C 99.914062 76.207031 99.761719 76.175781 99.613281 76.113281 C 99.464844 76.054688 99.332031 75.964844 99.21875 75.851562 C 99.105469 75.738281 99.019531 75.609375 98.957031 75.460938 C 98.898438 75.3125 98.867188 75.15625 98.867188 74.996094 C 98.867188 74.835938 98.898438 74.683594 98.957031 74.535156 C 99.019531 74.386719 99.105469 74.257812 99.21875 74.144531 C 99.332031 74.03125 99.464844 73.941406 99.613281 73.882812 C 99.761719 73.820312 99.914062 73.789062 100.074219 73.789062 C 100.234375 73.789062 100.390625 73.820312 100.539062 73.882812 C 100.6875 73.941406 100.816406 74.03125 100.929688 74.144531 C 101.042969 74.257812 101.128906 74.386719 101.191406 74.535156 C 101.253906 74.683594 101.285156 74.835938 101.285156 74.996094 Z M 101.285156 74.996094 " fill-opacity="1" fill-rule="nonzero"/><path fill="#ffffff" d="M 97.277344 74.996094 C 97.277344 75.15625 97.246094 75.3125 97.183594 75.460938 C 97.125 75.609375 97.035156 75.738281 96.921875 75.851562 C 96.808594 75.964844 96.679688 76.054688 96.53125 76.113281 C 96.382812 76.175781 96.226562 76.207031 96.066406 76.207031 C 95.90625 76.207031 95.753906 76.175781 95.605469 76.113281 C 95.457031 76.054688 95.324219 75.964844 95.210938 75.851562 C 95.097656 75.738281 95.011719 75.609375 94.949219 75.460938 C 94.890625 75.3125 94.859375 75.15625 94.859375 74.996094 C 94.859375 74.835938 94.890625 74.683594 94.949219 74.535156 C 95.011719 74.386719 95.097656 74.257812 95.210938 74.144531 C 95.324219 74.03125 95.457031 73.941406 95.605469 73.882812 C 95.753906 73.820312 95.90625 73.789062 96.066406 73.789062 C 96.226562 73.789062 96.382812 73.820312 96.53125 73.882812 C 96.679688 73.941406 96.808594 74.03125 96.921875 74.144531 C 97.035156 74.257812 97.125 74.386719 97.183594 74.535156 C 97.246094 74.683594 97.277344 74.835938 97.277344 74.996094 Z M 97.277344 74.996094 " fill-opacity="1" fill-rule="nonzero"/><path fill="#ffffff" d="M 93.277344 74.996094 C 93.277344 75.15625 93.246094 75.3125 93.1875 75.460938 C 93.125 75.609375 93.035156 75.738281 92.921875 75.851562 C 92.808594 75.964844 92.679688 76.054688 92.53125 76.113281 C 92.382812 76.175781 92.230469 76.207031 92.070312 76.207031 C 91.910156 76.207031 91.753906 76.175781 91.605469 76.113281 C 91.457031 76.054688 91.328125 75.964844 91.214844 75.851562 C 91.101562 75.738281 91.011719 75.609375 90.953125 75.460938 C 90.890625 75.3125 90.859375 75.15625 90.859375 74.996094 C 90.859375 74.835938 90.890625 74.683594 90.953125 74.535156 C 91.011719 74.386719 91.101562 74.257812 91.214844 74.144531 C 91.328125 74.03125 91.457031 73.941406 91.605469 73.882812 C 91.753906 73.820312 91.910156 73.789062 92.070312 73.789062 C 92.230469 73.789062 92.382812 73.820312 92.53125 73.882812 C 92.675781 73.945312 92.808594 74.03125 92.921875 74.144531 C 93.035156 74.257812 93.121094 74.390625 93.183594 74.535156 C 93.246094 74.683594 93.277344 74.839844 93.277344 74.996094 Z M 93.277344 74.996094 " fill-opacity="1" fill-rule="nonzero"/><path fill="#4590af" d="M 21.929688 87.164062 C 21.925781 87.488281 21.894531 87.804688 21.828125 88.121094 C 21.761719 88.433594 21.667969 88.742188 21.542969 89.035156 C 21.417969 89.332031 21.265625 89.613281 21.085938 89.878906 C 20.90625 90.144531 20.699219 90.390625 20.472656 90.617188 C 20.242188 90.84375 19.992188 91.046875 19.726562 91.222656 C 19.457031 91.398438 19.175781 91.550781 18.875 91.671875 C 18.578125 91.792969 18.273438 91.882812 17.957031 91.945312 C 17.640625 92.003906 17.320312 92.035156 17 92.03125 C 16.679688 92.03125 16.359375 92 16.042969 91.933594 C 15.730469 91.871094 15.421875 91.773438 15.128906 91.652344 C 14.832031 91.527344 14.550781 91.375 14.28125 91.195312 C 14.015625 91.015625 13.769531 90.8125 13.542969 90.582031 C 13.316406 90.355469 13.113281 90.105469 12.9375 89.839844 C 12.757812 89.570312 12.609375 89.289062 12.488281 88.988281 C 12.367188 88.691406 12.273438 88.386719 12.210938 88.070312 C 12.152344 87.753906 12.121094 87.4375 12.121094 87.113281 C 12.121094 86.792969 12.15625 86.476562 12.21875 86.160156 C 12.28125 85.84375 12.375 85.539062 12.5 85.242188 C 12.625 84.945312 12.777344 84.664062 12.957031 84.398438 C 13.136719 84.132812 13.339844 83.882812 13.566406 83.65625 C 13.792969 83.429688 14.042969 83.230469 14.308594 83.050781 C 14.578125 82.871094 14.859375 82.722656 15.15625 82.601562 C 15.457031 82.476562 15.761719 82.386719 16.078125 82.324219 C 16.394531 82.261719 16.710938 82.230469 17.035156 82.230469 C 17.355469 82.230469 17.675781 82.265625 17.992188 82.328125 C 18.308594 82.390625 18.617188 82.484375 18.914062 82.609375 C 19.214844 82.734375 19.496094 82.886719 19.765625 83.066406 C 20.03125 83.246094 20.28125 83.453125 20.507812 83.679688 C 20.734375 83.910156 20.9375 84.160156 21.117188 84.429688 C 21.292969 84.699219 21.445312 84.984375 21.566406 85.28125 C 21.6875 85.582031 21.78125 85.890625 21.839844 86.207031 C 21.902344 86.523438 21.929688 86.84375 21.929688 87.164062 Z M 21.929688 87.164062 " fill-opacity="1" fill-rule="nonzero"/><path fill="#d5d4eb" d="M 24.175781 82.296875 L 97.285156 82.296875 L 97.285156 84.613281 L 24.175781 84.613281 Z M 24.175781 82.296875 " fill-opacity="1" fill-rule="nonzero"/><path fill="#d5d4eb" d="M 24.175781 86 L 73.933594 86 L 73.933594 88.316406 L 24.175781 88.316406 Z M 24.175781 86 " fill-opacity="1" fill-rule="nonzero"/><path fill="#d5d4eb" d="M 24.175781 89.9375 L 50.050781 89.9375 L 50.050781 92.253906 L 24.175781 92.253906 Z M 24.175781 89.9375 " fill-opacity="1" fill-rule="nonzero"/><path fill="#4590af" d="M 21.929688 102.765625 C 21.929688 103.085938 21.898438 103.40625 21.835938 103.722656 C 21.773438 104.039062 21.679688 104.34375 21.558594 104.640625 C 21.433594 104.941406 21.285156 105.222656 21.105469 105.492188 C 20.925781 105.757812 20.722656 106.007812 20.496094 106.234375 C 20.269531 106.460938 20.019531 106.664062 19.753906 106.84375 C 19.484375 107.023438 19.203125 107.175781 18.90625 107.300781 C 18.609375 107.421875 18.300781 107.515625 17.984375 107.578125 C 17.667969 107.640625 17.351562 107.671875 17.027344 107.671875 C 16.707031 107.675781 16.386719 107.644531 16.070312 107.578125 C 15.753906 107.515625 15.449219 107.425781 15.148438 107.300781 C 14.851562 107.179688 14.570312 107.027344 14.300781 106.847656 C 14.035156 106.667969 13.785156 106.464844 13.558594 106.238281 C 13.328125 106.011719 13.125 105.761719 12.945312 105.496094 C 12.769531 105.226562 12.617188 104.945312 12.492188 104.648438 C 12.371094 104.347656 12.277344 104.042969 12.214844 103.726562 C 12.152344 103.410156 12.121094 103.09375 12.121094 102.769531 C 12.121094 102.449219 12.152344 102.128906 12.214844 101.8125 C 12.277344 101.496094 12.371094 101.191406 12.496094 100.894531 C 12.621094 100.597656 12.769531 100.3125 12.949219 100.046875 C 13.128906 99.777344 13.332031 99.53125 13.5625 99.304688 C 13.789062 99.074219 14.039062 98.871094 14.304688 98.695312 C 14.574219 98.515625 14.855469 98.363281 15.15625 98.242188 C 15.453125 98.121094 15.757812 98.027344 16.074219 97.964844 C 16.390625 97.902344 16.710938 97.871094 17.035156 97.871094 C 17.355469 97.871094 17.671875 97.902344 17.988281 97.964844 C 18.304688 98.027344 18.609375 98.121094 18.90625 98.246094 C 19.203125 98.367188 19.484375 98.519531 19.753906 98.695312 C 20.019531 98.875 20.265625 99.078125 20.496094 99.304688 C 20.722656 99.53125 20.925781 99.777344 21.105469 100.046875 C 21.28125 100.3125 21.433594 100.59375 21.554688 100.890625 C 21.679688 101.1875 21.773438 101.496094 21.835938 101.808594 C 21.898438 102.125 21.929688 102.441406 21.929688 102.765625 Z M 21.929688 102.765625 " fill-opacity="1" fill-rule="nonzero"/><path fill="#d5d4eb" d="M 24.175781 97.90625 L 97.285156 97.90625 L 97.285156 100.222656 L 24.175781 100.222656 Z M 24.175781 97.90625 " fill-opacity="1" fill-rule="nonzero"/><path fill="#d5d4eb" d="M 24.175781 101.605469 L 73.933594 101.605469 L 73.933594 103.921875 L 24.175781 103.921875 Z M 24.175781 101.605469 " fill-opacity="1" fill-rule="nonzero"/><path fill="#d5d4eb" d="M 24.175781 105.535156 L 50.050781 105.535156 L 50.050781 107.851562 L 24.175781 107.851562 Z M 24.175781 105.535156 " fill-opacity="1" fill-rule="nonzero"/><path fill="#4590af" d="M 21.929688 118.371094 C 21.929688 118.695312 21.902344 119.011719 21.839844 119.328125 C 21.777344 119.644531 21.6875 119.953125 21.5625 120.25 C 21.441406 120.550781 21.292969 120.832031 21.113281 121.101562 C 20.9375 121.371094 20.734375 121.621094 20.507812 121.847656 C 20.277344 122.078125 20.03125 122.28125 19.765625 122.460938 C 19.496094 122.640625 19.214844 122.792969 18.917969 122.917969 C 18.621094 123.042969 18.3125 123.136719 17.996094 123.199219 C 17.679688 123.265625 17.363281 123.296875 17.039062 123.296875 C 16.714844 123.296875 16.398438 123.269531 16.082031 123.207031 C 15.765625 123.144531 15.457031 123.050781 15.160156 122.929688 C 14.859375 122.804688 14.578125 122.65625 14.308594 122.476562 C 14.039062 122.296875 13.792969 122.09375 13.5625 121.867188 C 13.335938 121.640625 13.132812 121.394531 12.953125 121.125 C 12.773438 120.859375 12.621094 120.574219 12.496094 120.277344 C 12.371094 119.980469 12.28125 119.671875 12.214844 119.355469 C 12.152344 119.039062 12.121094 118.722656 12.121094 118.398438 C 12.121094 118.078125 12.152344 117.757812 12.214844 117.441406 C 12.277344 117.125 12.371094 116.820312 12.496094 116.519531 C 12.617188 116.222656 12.769531 115.941406 12.949219 115.671875 C 13.128906 115.40625 13.332031 115.15625 13.558594 114.929688 C 13.789062 114.703125 14.035156 114.5 14.304688 114.320312 C 14.574219 114.140625 14.855469 113.988281 15.152344 113.867188 C 15.453125 113.742188 15.757812 113.652344 16.074219 113.589844 C 16.390625 113.527344 16.710938 113.496094 17.035156 113.496094 C 17.355469 113.496094 17.671875 113.527344 17.984375 113.589844 C 18.300781 113.652344 18.605469 113.746094 18.902344 113.867188 C 19.199219 113.992188 19.480469 114.140625 19.746094 114.320312 C 20.011719 114.496094 20.257812 114.699219 20.488281 114.925781 C 20.714844 115.152344 20.917969 115.398438 21.09375 115.664062 C 21.273438 115.929688 21.425781 116.210938 21.550781 116.503906 C 21.671875 116.800781 21.765625 117.105469 21.832031 117.417969 C 21.894531 117.734375 21.925781 118.050781 21.929688 118.371094 Z M 21.929688 118.371094 " fill-opacity="1" fill-rule="nonzero"/><path fill="#d5d4eb" d="M 24.175781 113.503906 L 97.285156 113.503906 L 97.285156 115.820312 L 24.175781 115.820312 Z M 24.175781 113.503906 " fill-opacity="1" fill-rule="nonzero"/><path fill="#d5d4eb" d="M 24.175781 117.214844 L 73.933594 117.214844 L 73.933594 119.527344 L 24.175781 119.527344 Z M 24.175781 117.214844 " fill-opacity="1" fill-rule="nonzero"/><path fill="#d5d4eb" d="M 24.175781 121.144531 L 50.050781 121.144531 L 50.050781 123.457031 L 24.175781 123.457031 Z M 24.175781 121.144531 " fill-opacity="1" fill-rule="nonzero"/><path stroke-linecap="butt" transform="matrix(0.845467, 0, 0, 0.844993, 0.140939, 35.181816)" fill="none" stroke-linejoin="miter" d="M 2.439109 38.038681 L 127.300734 38.038681 L 127.300734 122.839721 L 2.439109 122.839721 Z M 2.439109 38.038681 " stroke="#4590b1" stroke-width="1" stroke-opacity="1" stroke-miterlimit="10"/><path fill="#45a6af" d="M 0.140625 65.253906 L 4.273438 65.253906 L 4.273438 69.386719 L 0.140625 69.386719 Z M 0.140625 65.253906 " fill-opacity="1" fill-rule="nonzero"/><path fill="#45a6af" d="M 0.140625 136.910156 L 4.273438 136.910156 L 4.273438 141.042969 L 0.140625 141.042969 Z M 0.140625 136.910156 " fill-opacity="1" fill-rule="nonzero"/><path fill="#45a6af" d="M 105.707031 65.253906 L 109.839844 65.253906 L 109.839844 69.386719 L 105.707031 69.386719 Z M 105.707031 65.253906 " fill-opacity="1" fill-rule="nonzero"/><path fill="#38356e" d="M 105.707031 136.910156 L 109.839844 136.910156 L 109.839844 141.042969 L 105.707031 141.042969 Z M 105.707031 136.910156 " fill-opacity="1" fill-rule="nonzero"/><path fill="#45a6af" d="M 222.328125 191.765625 L 292.460938 191.765625 C 292.707031 191.765625 292.945312 191.816406 293.171875 191.910156 C 293.402344 192.003906 293.601562 192.136719 293.777344 192.3125 C 293.949219 192.484375 294.085938 192.6875 294.179688 192.914062 C 294.273438 193.144531 294.320312 193.378906 294.320312 193.625 L 294.320312 241.175781 C 294.320312 241.421875 294.273438 241.65625 294.179688 241.886719 C 294.085938 242.113281 293.949219 242.3125 293.777344 242.488281 C 293.601562 242.664062 293.402344 242.796875 293.171875 242.890625 C 292.945312 242.984375 292.707031 243.03125 292.460938 243.03125 L 222.328125 243.03125 C 222.082031 243.03125 221.847656 242.984375 221.617188 242.890625 C 221.390625 242.796875 221.1875 242.664062 221.015625 242.488281 C 220.839844 242.3125 220.707031 242.113281 220.609375 241.886719 C 220.515625 241.65625 220.46875 241.421875 220.46875 241.175781 L 220.46875 193.625 C 220.46875 193.378906 220.515625 193.144531 220.609375 192.914062 C 220.707031 192.6875 220.839844 192.484375 221.015625 192.3125 C 221.1875 192.136719 221.390625 192.003906 221.617188 191.910156 C 221.847656 191.816406 222.082031 191.765625 222.328125 191.765625 Z M 222.328125 191.765625 " fill-opacity="1" fill-rule="nonzero"/><path fill="#ffffff" d="M 293.214844 197.117188 L 293.214844 240.550781 C 293.214844 240.707031 293.183594 240.855469 293.125 241 C 293.0625 241.144531 292.976562 241.273438 292.867188 241.386719 C 292.757812 241.496094 292.628906 241.582031 292.484375 241.640625 C 292.339844 241.703125 292.1875 241.730469 292.03125 241.730469 L 222.777344 241.730469 C 222.621094 241.730469 222.46875 241.703125 222.324219 241.640625 C 222.179688 241.582031 222.050781 241.496094 221.941406 241.386719 C 221.828125 241.273438 221.746094 241.144531 221.683594 241 C 221.625 240.855469 221.59375 240.707031 221.59375 240.550781 L 221.59375 197.117188 C 221.59375 196.960938 221.625 196.808594 221.683594 196.664062 C 221.746094 196.519531 221.828125 196.390625 221.941406 196.28125 C 222.050781 196.167969 222.179688 196.082031 222.324219 196.023438 C 222.46875 195.964844 222.621094 195.933594 222.777344 195.933594 L 292.03125 195.933594 C 292.1875 195.933594 292.339844 195.964844 292.484375 196.023438 C 292.628906 196.082031 292.757812 196.167969 292.867188 196.28125 C 292.976562 196.390625 293.0625 196.519531 293.125 196.664062 C 293.183594 196.808594 293.214844 196.960938 293.214844 197.117188 Z M 293.214844 197.117188 " fill-opacity="1" fill-rule="nonzero"/><path fill="#ffffff" d="M 292.691406 193.855469 C 292.691406 193.988281 292.664062 194.121094 292.613281 194.246094 C 292.558594 194.371094 292.484375 194.480469 292.390625 194.578125 C 292.292969 194.671875 292.183594 194.746094 292.058594 194.800781 C 291.933594 194.851562 291.800781 194.875 291.667969 194.878906 C 291.53125 194.875 291.398438 194.851562 291.273438 194.800781 C 291.148438 194.746094 291.039062 194.671875 290.941406 194.578125 C 290.847656 194.480469 290.773438 194.371094 290.722656 194.246094 C 290.667969 194.121094 290.644531 193.988281 290.644531 193.855469 C 290.644531 193.71875 290.667969 193.589844 290.722656 193.464844 C 290.773438 193.339844 290.847656 193.226562 290.941406 193.132812 C 291.039062 193.035156 291.148438 192.960938 291.273438 192.910156 C 291.398438 192.859375 291.53125 192.832031 291.667969 192.832031 C 291.949219 192.835938 292.1875 192.933594 292.386719 193.132812 C 292.585938 193.332031 292.6875 193.574219 292.691406 193.855469 Z M 292.691406 193.855469 " fill-opacity="1" fill-rule="nonzero"/><path fill="#ffffff" d="M 289.308594 193.855469 C 289.308594 193.992188 289.285156 194.125 289.230469 194.25 C 289.179688 194.378906 289.105469 194.492188 289.007812 194.585938 C 288.914062 194.683594 288.800781 194.761719 288.675781 194.8125 C 288.546875 194.867188 288.417969 194.894531 288.277344 194.894531 C 288.140625 194.894531 288.007812 194.867188 287.882812 194.816406 C 287.757812 194.761719 287.644531 194.6875 287.546875 194.59375 C 287.449219 194.496094 287.375 194.382812 287.324219 194.257812 C 287.269531 194.128906 287.246094 193.996094 287.246094 193.859375 C 287.246094 193.722656 287.273438 193.589844 287.324219 193.464844 C 287.378906 193.339844 287.453125 193.226562 287.550781 193.128906 C 287.648438 193.035156 287.761719 192.960938 287.886719 192.90625 C 288.015625 192.855469 288.148438 192.832031 288.285156 192.832031 C 288.566406 192.835938 288.804688 192.933594 289.003906 193.132812 C 289.203125 193.332031 289.304688 193.574219 289.308594 193.855469 Z M 289.308594 193.855469 " fill-opacity="1" fill-rule="nonzero"/><path fill="#ffffff" d="M 285.917969 193.855469 C 285.917969 193.988281 285.890625 194.121094 285.839844 194.246094 C 285.789062 194.371094 285.714844 194.480469 285.617188 194.578125 C 285.523438 194.671875 285.410156 194.746094 285.285156 194.800781 C 285.160156 194.851562 285.03125 194.875 284.894531 194.878906 C 284.757812 194.875 284.628906 194.851562 284.503906 194.800781 C 284.378906 194.746094 284.265625 194.671875 284.171875 194.578125 C 284.074219 194.480469 284 194.371094 283.949219 194.246094 C 283.898438 194.121094 283.871094 193.988281 283.871094 193.855469 C 283.871094 193.71875 283.898438 193.589844 283.949219 193.464844 C 284 193.339844 284.074219 193.226562 284.171875 193.132812 C 284.265625 193.035156 284.378906 192.960938 284.503906 192.910156 C 284.628906 192.859375 284.757812 192.832031 284.894531 192.832031 C 285.175781 192.835938 285.417969 192.933594 285.613281 193.132812 C 285.8125 193.332031 285.914062 193.574219 285.917969 193.855469 Z M 285.917969 193.855469 " fill-opacity="1" fill-rule="nonzero"/><path fill="#4590b0" d="M 260.023438 208.542969 C 260.699219 208.710938 261.355469 208.949219 261.984375 209.25 C 262.613281 209.550781 263.210938 209.910156 263.769531 210.324219 C 264.328125 210.742188 264.84375 211.210938 265.308594 211.730469 C 265.777344 212.25 266.191406 212.808594 266.546875 213.40625 C 266.902344 214.007812 267.199219 214.636719 267.433594 215.292969 C 267.664062 215.953125 267.832031 216.625 267.933594 217.316406 C 268.03125 218.007812 268.066406 218.703125 268.027344 219.398438 C 267.992188 220.097656 267.886719 220.78125 267.714844 221.460938 C 267.542969 222.136719 267.308594 222.789062 267.007812 223.417969 C 266.707031 224.050781 266.347656 224.644531 265.929688 225.203125 C 265.511719 225.761719 265.042969 226.277344 264.527344 226.742188 C 264.007812 227.210938 263.445312 227.621094 262.847656 227.980469 C 262.246094 228.335938 261.617188 228.632812 260.960938 228.863281 C 260.300781 229.097656 259.625 229.265625 258.933594 229.363281 C 258.242188 229.464844 257.550781 229.496094 256.851562 229.460938 C 256.15625 229.421875 255.46875 229.320312 254.789062 229.148438 C 254.113281 228.976562 253.460938 228.738281 252.828125 228.441406 C 252.199219 228.140625 251.605469 227.78125 251.042969 227.363281 C 250.484375 226.945312 249.972656 226.476562 249.503906 225.957031 C 249.035156 225.441406 248.625 224.882812 248.265625 224.28125 C 247.910156 223.679688 247.613281 223.050781 247.382812 222.394531 C 247.148438 221.738281 246.980469 221.0625 246.882812 220.371094 C 246.78125 219.679688 246.75 218.988281 246.785156 218.289062 C 246.820312 217.59375 246.925781 216.90625 247.097656 216.230469 C 247.269531 215.554688 247.507812 214.898438 247.804688 214.269531 C 248.105469 213.640625 248.464844 213.046875 248.882812 212.484375 C 249.300781 211.925781 249.769531 211.414062 250.289062 210.945312 C 250.808594 210.480469 251.367188 210.066406 251.96875 209.710938 C 252.566406 209.351562 253.195312 209.058594 253.855469 208.824219 C 254.511719 208.589844 255.1875 208.425781 255.878906 208.324219 C 256.570312 208.222656 257.265625 208.191406 257.960938 208.230469 C 258.660156 208.265625 259.347656 208.371094 260.023438 208.542969 Z M 260.023438 208.542969 " fill-opacity="1" fill-rule="nonzero"/><path fill="#ffffff" d="M 263.621094 218.832031 L 258.691406 221.679688 L 253.773438 224.519531 L 253.773438 213.152344 L 258.691406 215.992188 Z M 263.621094 218.832031 " fill-opacity="1" fill-rule="nonzero"/><path fill="#d5d4eb" d="M 221.585938 236.933594 L 293.207031 236.933594 L 293.207031 238.34375 L 221.585938 238.34375 Z M 221.585938 236.933594 " fill-opacity="1" fill-rule="nonzero"/><path fill="#4590b0" d="M 221.585938 236.933594 L 237.71875 236.933594 L 237.71875 238.34375 L 221.585938 238.34375 Z M 221.585938 236.933594 " fill-opacity="1" fill-rule="nonzero"/><path fill="#4590b0" d="M 238.808594 237.640625 C 238.808594 237.785156 238.78125 237.921875 238.726562 238.054688 C 238.671875 238.1875 238.59375 238.304688 238.492188 238.40625 C 238.390625 238.507812 238.273438 238.585938 238.140625 238.640625 C 238.007812 238.695312 237.871094 238.722656 237.726562 238.722656 C 237.582031 238.722656 237.445312 238.695312 237.3125 238.640625 C 237.179688 238.585938 237.0625 238.507812 236.960938 238.40625 C 236.859375 238.304688 236.78125 238.1875 236.726562 238.054688 C 236.671875 237.921875 236.644531 237.785156 236.644531 237.640625 C 236.644531 237.5 236.671875 237.359375 236.726562 237.226562 C 236.78125 237.09375 236.859375 236.980469 236.960938 236.878906 C 237.0625 236.777344 237.179688 236.699219 237.3125 236.644531 C 237.445312 236.589844 237.582031 236.558594 237.726562 236.558594 C 237.871094 236.558594 238.007812 236.589844 238.140625 236.644531 C 238.273438 236.699219 238.390625 236.777344 238.492188 236.878906 C 238.59375 236.980469 238.671875 237.09375 238.726562 237.226562 C 238.78125 237.359375 238.808594 237.5 238.808594 237.640625 Z M 238.808594 237.640625 " fill-opacity="1" fill-rule="nonzero"/><path stroke-linecap="butt" transform="matrix(0.845467, 0, 0, 0.844993, 0.140939, 35.181816)" fill="none" stroke-linejoin="miter" d="M 255.927844 181.281433 L 352.629188 181.281433 L 352.629188 251.099908 L 255.927844 251.099908 Z M 255.927844 181.281433 " stroke="#4590b1" stroke-width="1" stroke-opacity="1" stroke-miterlimit="10"/><path fill="#38356e" d="M 214.921875 186.765625 L 218.128906 186.765625 L 218.128906 189.96875 L 214.921875 189.96875 Z M 214.921875 186.765625 " fill-opacity="1" fill-rule="nonzero"/><path fill="#45a6af" d="M 214.921875 245.761719 L 218.128906 245.761719 L 218.128906 248.964844 L 214.921875 248.964844 Z M 214.921875 245.761719 " fill-opacity="1" fill-rule="nonzero"/><path fill="#45a6af" d="M 296.679688 186.765625 L 299.882812 186.765625 L 299.882812 189.96875 L 296.679688 189.96875 Z M 296.679688 186.765625 " fill-opacity="1" fill-rule="nonzero"/><path fill="#45a6af" d="M 296.679688 245.761719 L 299.882812 245.761719 L 299.882812 248.964844 L 296.679688 248.964844 Z M 296.679688 245.761719 " fill-opacity="1" fill-rule="nonzero"/><path fill="#45a6af" d="M 282.195312 111.296875 L 247.238281 111.296875 C 247.074219 111.300781 246.914062 111.269531 246.761719 111.207031 C 246.609375 111.144531 246.476562 111.054688 246.359375 110.941406 C 246.242188 110.824219 246.152344 110.691406 246.089844 110.539062 C 246.027344 110.386719 245.996094 110.230469 245.996094 110.066406 L 245.996094 85.09375 C 245.996094 84.929688 246.027344 84.773438 246.089844 84.621094 C 246.15625 84.472656 246.246094 84.339844 246.363281 84.222656 C 246.476562 84.105469 246.613281 84.019531 246.761719 83.957031 C 246.914062 83.894531 247.074219 83.863281 247.238281 83.863281 L 261.449219 83.863281 C 261.777344 83.871094 262.0625 83.992188 262.296875 84.226562 L 264.601562 86.53125 C 264.835938 86.765625 265.117188 86.886719 265.449219 86.894531 L 282.136719 86.894531 C 282.300781 86.894531 282.460938 86.925781 282.609375 86.988281 C 282.761719 87.050781 282.894531 87.140625 283.011719 87.257812 C 283.125 87.371094 283.214844 87.503906 283.277344 87.65625 C 283.339844 87.808594 283.371094 87.964844 283.371094 88.128906 L 283.371094 110.097656 C 283.367188 110.253906 283.335938 110.402344 283.273438 110.546875 C 283.214844 110.691406 283.128906 110.816406 283.019531 110.929688 C 282.910156 111.039062 282.785156 111.128906 282.644531 111.191406 C 282.5 111.253906 282.351562 111.292969 282.195312 111.296875 Z M 282.195312 111.296875 " fill-opacity="1" fill-rule="nonzero"/><path fill="#d5d4eb" d="M 279.027344 69.226562 L 279.027344 100.644531 L 249.34375 100.644531 L 249.34375 64.535156 L 274.335938 64.535156 Z M 279.027344 69.226562 " fill-opacity="1" fill-rule="nonzero"/><path fill="#cbcae0" d="M 274.335938 69.226562 L 274.335938 64.535156 L 279.027344 69.226562 Z M 274.335938 69.226562 " fill-opacity="1" fill-rule="nonzero"/><path fill="#e7e6ff" d="M 280.871094 70.867188 L 280.871094 102.292969 L 251.183594 102.292969 L 251.183594 66.175781 L 276.175781 66.175781 Z M 280.871094 70.867188 " fill-opacity="1" fill-rule="nonzero"/><path fill="#54c4d0" d="M 283.515625 111.296875 L 248.546875 111.296875 C 248.382812 111.296875 248.226562 111.265625 248.074219 111.203125 C 247.925781 111.140625 247.789062 111.054688 247.675781 110.9375 C 247.558594 110.820312 247.46875 110.6875 247.40625 110.539062 C 247.34375 110.386719 247.3125 110.230469 247.3125 110.066406 L 247.3125 88.644531 C 247.3125 88.480469 247.34375 88.324219 247.40625 88.171875 C 247.46875 88.019531 247.558594 87.886719 247.675781 87.773438 C 247.789062 87.65625 247.925781 87.566406 248.074219 87.503906 C 248.226562 87.441406 248.382812 87.410156 248.546875 87.410156 L 262.761719 87.410156 C 263.089844 87.417969 263.371094 87.539062 263.605469 87.773438 L 265.914062 90.082031 C 266.148438 90.316406 266.429688 90.4375 266.757812 90.445312 L 283.457031 90.445312 C 283.621094 90.445312 283.777344 90.476562 283.929688 90.539062 C 284.082031 90.601562 284.214844 90.691406 284.328125 90.804688 C 284.445312 90.921875 284.535156 91.054688 284.597656 91.207031 C 284.660156 91.355469 284.691406 91.515625 284.691406 91.679688 L 284.691406 110.066406 C 284.691406 110.222656 284.664062 110.375 284.601562 110.523438 C 284.542969 110.671875 284.460938 110.800781 284.351562 110.917969 C 284.242188 111.03125 284.113281 111.121094 283.96875 111.1875 C 283.824219 111.253906 283.675781 111.292969 283.515625 111.296875 Z M 283.515625 111.296875 " fill-opacity="1" fill-rule="nonzero"/><path fill="#cbcae0" d="M 276.175781 70.867188 L 276.175781 66.175781 L 280.871094 70.867188 Z M 276.175781 70.867188 " fill-opacity="1" fill-rule="nonzero"/><path fill="#cbcae0" d="M 252.453125 68.238281 L 274.925781 68.238281 L 274.925781 69.453125 L 252.453125 69.453125 Z M 252.453125 68.238281 " fill-opacity="1" fill-rule="nonzero"/><path fill="#cbcae0" d="M 252.53125 72.84375 L 279.527344 72.84375 L 279.527344 73.613281 L 252.53125 73.613281 Z M 252.53125 72.84375 " fill-opacity="1" fill-rule="nonzero"/><path fill="#cbcae0" d="M 252.53125 75.015625 L 279.527344 75.015625 L 279.527344 75.785156 L 252.53125 75.785156 Z M 252.53125 75.015625 " fill-opacity="1" fill-rule="nonzero"/><path fill="#cbcae0" d="M 252.53125 77.195312 L 274.714844 77.195312 L 274.714844 77.964844 L 252.53125 77.964844 Z M 252.53125 77.195312 " fill-opacity="1" fill-rule="nonzero"/><path fill="#cbcae0" d="M 252.53125 79.375 L 274.714844 79.375 L 274.714844 80.144531 L 252.53125 80.144531 Z M 252.53125 79.375 " fill-opacity="1" fill-rule="nonzero"/><path fill="#cbcae0" d="M 252.53125 81.554688 L 267.535156 81.554688 L 267.535156 82.324219 L 252.53125 82.324219 Z M 252.53125 81.554688 " fill-opacity="1" fill-rule="nonzero"/><path fill="#cbcae0" d="M 252.53125 83.734375 L 267.535156 83.734375 L 267.535156 84.503906 L 252.53125 84.503906 Z M 252.53125 83.734375 " fill-opacity="1" fill-rule="nonzero"/><path fill="#4590b0" d="M 263.140625 182.726562 C 263.96875 181.199219 264.59375 179.59375 265.007812 177.910156 L 265.007812 167.617188 C 265.011719 167.332031 265.066406 167.0625 265.175781 166.796875 C 265.285156 166.535156 265.441406 166.304688 265.640625 166.105469 C 265.84375 165.90625 266.074219 165.75 266.335938 165.640625 C 266.597656 165.535156 266.871094 165.480469 267.15625 165.480469 L 294.210938 165.480469 C 294.496094 165.480469 294.769531 165.535156 295.03125 165.640625 C 295.292969 165.75 295.523438 165.90625 295.722656 166.105469 C 295.925781 166.304688 296.078125 166.539062 296.1875 166.800781 C 296.296875 167.0625 296.351562 167.335938 296.351562 167.617188 L 296.351562 178.558594 C 296.351562 178.84375 296.296875 179.117188 296.1875 179.378906 C 296.078125 179.640625 295.925781 179.875 295.722656 180.074219 C 295.523438 180.277344 295.292969 180.429688 295.03125 180.539062 C 294.769531 180.648438 294.496094 180.707031 294.210938 180.707031 L 268.59375 180.707031 C 267.273438 182.164062 265.65625 183.113281 263.742188 183.554688 C 263.503906 183.605469 263.3125 183.535156 263.167969 183.335938 C 263.027344 183.140625 263.015625 182.9375 263.140625 182.726562 Z M 263.140625 182.726562 " fill-opacity="1" fill-rule="nonzero"/><path fill="#ffffff" d="M 286.195312 169.15625 C 286.484375 169.019531 286.785156 168.941406 287.101562 168.921875 C 287.421875 168.902344 287.730469 168.9375 288.03125 169.035156 C 288.335938 169.128906 288.613281 169.277344 288.859375 169.476562 C 289.105469 169.675781 289.308594 169.910156 289.46875 170.1875 C 289.621094 169.90625 289.824219 169.664062 290.070312 169.464844 C 290.316406 169.261719 290.59375 169.113281 290.898438 169.015625 C 291.203125 168.921875 291.515625 168.882812 291.832031 168.910156 C 292.152344 168.933594 292.453125 169.015625 292.738281 169.15625 C 293.304688 169.480469 293.734375 169.933594 294.027344 170.511719 C 294.324219 171.089844 294.4375 171.703125 294.371094 172.347656 C 294.210938 173.667969 293.621094 174.753906 292.605469 175.609375 C 291.660156 176.402344 290.617188 177.023438 289.46875 177.46875 C 288.320312 177.023438 287.273438 176.40625 286.332031 175.609375 C 285.316406 174.753906 284.726562 173.667969 284.566406 172.347656 C 284.496094 171.703125 284.609375 171.089844 284.90625 170.507812 C 285.199219 169.929688 285.632812 169.480469 286.195312 169.15625 Z M 286.195312 169.15625 " fill-opacity="1" fill-rule="nonzero"/><path fill="#ffffff" d="M 270.582031 170.109375 L 270.582031 176.398438 L 268.796875 176.398438 L 268.796875 171.488281 L 267.628906 171.488281 L 267.628906 170.109375 Z M 270.582031 170.109375 " fill-opacity="1" fill-rule="nonzero"/><path fill="#ffffff" d="M 272.863281 176.09375 C 272.421875 175.820312 272.09375 175.445312 271.882812 174.96875 C 271.644531 174.40625 271.527344 173.820312 271.527344 173.210938 C 271.527344 172.601562 271.644531 172.015625 271.882812 171.453125 C 272.09375 170.980469 272.421875 170.605469 272.863281 170.328125 C 273.304688 170.058594 273.785156 169.929688 274.300781 169.941406 C 274.820312 169.929688 275.296875 170.058594 275.738281 170.335938 C 276.175781 170.609375 276.503906 170.980469 276.71875 171.453125 C 276.957031 172.015625 277.074219 172.601562 277.074219 173.210938 C 277.074219 173.820312 276.957031 174.40625 276.71875 174.96875 C 276.546875 175.308594 276.316406 175.601562 276.023438 175.84375 C 275.730469 176.089844 275.402344 176.265625 275.035156 176.371094 C 274.671875 176.476562 274.296875 176.507812 273.921875 176.457031 C 273.542969 176.410156 273.191406 176.289062 272.863281 176.09375 Z M 275.019531 174.589844 C 275.382812 173.671875 275.382812 172.753906 275.019531 171.835938 C 274.863281 171.550781 274.625 171.402344 274.300781 171.394531 C 273.972656 171.398438 273.730469 171.546875 273.574219 171.835938 C 273.210938 172.753906 273.210938 173.671875 273.574219 174.589844 C 273.730469 174.875 273.972656 175.023438 274.300781 175.027344 C 274.625 175.019531 274.863281 174.871094 275.019531 174.589844 Z M 275.019531 174.589844 " fill-opacity="1" fill-rule="nonzero"/><path fill="#ffffff" d="M 279.019531 176.09375 C 278.574219 175.820312 278.25 175.445312 278.039062 174.96875 C 277.800781 174.40625 277.683594 173.820312 277.683594 173.210938 C 277.683594 172.601562 277.800781 172.015625 278.039062 171.453125 C 278.25 170.980469 278.574219 170.605469 279.019531 170.328125 C 279.460938 170.058594 279.9375 169.929688 280.457031 169.941406 C 280.96875 169.929688 281.445312 170.0625 281.882812 170.328125 C 282.328125 170.605469 282.65625 170.980469 282.875 171.453125 C 283.109375 172.015625 283.230469 172.601562 283.230469 173.210938 C 283.230469 173.820312 283.109375 174.40625 282.875 174.96875 C 282.65625 175.445312 282.328125 175.816406 281.882812 176.09375 C 281.445312 176.363281 280.96875 176.492188 280.457031 176.480469 C 279.9375 176.492188 279.460938 176.363281 279.019531 176.09375 Z M 281.175781 174.589844 C 281.535156 173.671875 281.535156 172.753906 281.175781 171.835938 C 281.019531 171.550781 280.78125 171.402344 280.457031 171.394531 C 280.125 171.390625 279.886719 171.539062 279.738281 171.835938 C 279.363281 172.753906 279.363281 173.671875 279.738281 174.589844 C 279.886719 174.886719 280.125 175.03125 280.457031 175.027344 C 280.78125 175.019531 281.019531 174.871094 281.175781 174.589844 Z M 281.175781 174.589844 " fill-opacity="1" fill-rule="nonzero"/><path fill="#45a6af" d="M 68.167969 106.632812 L 241.226562 106.632812 C 241.738281 106.632812 242.230469 106.730469 242.703125 106.929688 C 243.179688 107.125 243.59375 107.402344 243.957031 107.765625 C 244.320312 108.128906 244.597656 108.546875 244.796875 109.019531 C 244.992188 109.492188 245.089844 109.984375 245.089844 110.496094 L 245.089844 208.285156 C 245.089844 208.800781 244.992188 209.292969 244.796875 209.765625 C 244.597656 210.238281 244.320312 210.65625 243.957031 211.015625 C 243.59375 211.378906 243.179688 211.660156 242.703125 211.855469 C 242.230469 212.050781 241.738281 212.148438 241.226562 212.148438 L 68.167969 212.148438 C 67.65625 212.148438 67.160156 212.050781 66.6875 211.855469 C 66.214844 211.660156 65.796875 211.378906 65.433594 211.015625 C 65.074219 210.65625 64.792969 210.238281 64.597656 209.765625 C 64.402344 209.292969 64.304688 208.800781 64.304688 208.285156 L 64.304688 110.496094 C 64.304688 109.984375 64.402344 109.492188 64.597656 109.019531 C 64.792969 108.546875 65.074219 108.128906 65.433594 107.765625 C 65.796875 107.402344 66.214844 107.125 66.6875 106.929688 C 67.160156 106.730469 67.65625 106.632812 68.167969 106.632812 Z M 68.167969 106.632812 " fill-opacity="1" fill-rule="nonzero"/><path fill="#ffffff" d="M 242.59375 118.277344 L 242.59375 206.917969 C 242.59375 207.226562 242.535156 207.523438 242.417969 207.8125 C 242.300781 208.097656 242.132812 208.347656 241.910156 208.566406 C 241.691406 208.785156 241.441406 208.953125 241.15625 209.074219 C 240.871094 209.191406 240.570312 209.25 240.261719 209.25 L 69.132812 209.25 C 68.820312 209.25 68.523438 209.191406 68.238281 209.074219 C 67.953125 208.953125 67.699219 208.785156 67.480469 208.566406 C 67.261719 208.347656 67.09375 208.097656 66.976562 207.808594 C 66.855469 207.523438 66.796875 207.226562 66.796875 206.917969 L 66.796875 118.277344 C 66.796875 117.96875 66.855469 117.671875 66.976562 117.386719 C 67.09375 117.101562 67.261719 116.847656 67.480469 116.628906 C 67.699219 116.410156 67.953125 116.242188 68.238281 116.125 C 68.523438 116.003906 68.820312 115.945312 69.132812 115.945312 L 240.261719 115.945312 C 240.570312 115.945312 240.871094 116.003906 241.15625 116.125 C 241.441406 116.242188 241.691406 116.410156 241.910156 116.628906 C 242.132812 116.847656 242.300781 117.101562 242.417969 117.386719 C 242.535156 117.671875 242.59375 117.96875 242.59375 118.277344 Z M 242.59375 118.277344 " fill-opacity="1" fill-rule="nonzero"/><path fill="#ffffff" d="M 241.4375 111.296875 C 241.4375 111.601562 241.378906 111.894531 241.261719 112.175781 C 241.148438 112.457031 240.980469 112.703125 240.765625 112.917969 C 240.550781 113.132812 240.304688 113.296875 240.023438 113.414062 C 239.742188 113.53125 239.449219 113.589844 239.144531 113.589844 C 238.84375 113.589844 238.550781 113.53125 238.269531 113.414062 C 237.988281 113.296875 237.742188 113.132812 237.527344 112.917969 C 237.3125 112.703125 237.144531 112.457031 237.027344 112.175781 C 236.914062 111.894531 236.855469 111.601562 236.855469 111.296875 C 236.855469 110.996094 236.914062 110.703125 237.027344 110.421875 C 237.144531 110.140625 237.3125 109.894531 237.527344 109.679688 C 237.742188 109.464844 237.988281 109.300781 238.269531 109.183594 C 238.550781 109.066406 238.84375 109.007812 239.144531 109.007812 C 239.449219 109.007812 239.742188 109.066406 240.023438 109.183594 C 240.304688 109.300781 240.550781 109.464844 240.765625 109.679688 C 240.980469 109.894531 241.148438 110.140625 241.261719 110.421875 C 241.378906 110.703125 241.4375 110.996094 241.4375 111.296875 Z M 241.4375 111.296875 " fill-opacity="1" fill-rule="nonzero"/><path fill="#ffffff" d="M 233.871094 111.296875 C 233.871094 111.601562 233.8125 111.894531 233.695312 112.175781 C 233.578125 112.457031 233.414062 112.703125 233.199219 112.917969 C 232.984375 113.132812 232.734375 113.300781 232.453125 113.414062 C 232.171875 113.53125 231.878906 113.589844 231.578125 113.589844 C 231.273438 113.589844 230.980469 113.53125 230.699219 113.414062 C 230.417969 113.296875 230.171875 113.128906 229.957031 112.914062 C 229.742188 112.699219 229.578125 112.453125 229.460938 112.171875 C 229.34375 111.890625 229.289062 111.597656 229.289062 111.292969 C 229.289062 110.988281 229.347656 110.695312 229.464844 110.417969 C 229.582031 110.136719 229.75 109.890625 229.964844 109.675781 C 230.179688 109.460938 230.429688 109.296875 230.710938 109.179688 C 230.992188 109.066406 231.285156 109.007812 231.585938 109.007812 C 231.890625 109.007812 232.183594 109.066406 232.464844 109.183594 C 232.742188 109.300781 232.992188 109.464844 233.203125 109.679688 C 233.417969 109.894531 233.582031 110.140625 233.699219 110.421875 C 233.8125 110.703125 233.871094 110.996094 233.871094 111.296875 Z M 233.871094 111.296875 " fill-opacity="1" fill-rule="nonzero"/><path fill="#ffffff" d="M 226.3125 111.296875 C 226.3125 111.601562 226.253906 111.894531 226.136719 112.175781 C 226.019531 112.457031 225.855469 112.703125 225.640625 112.917969 C 225.425781 113.132812 225.179688 113.296875 224.898438 113.414062 C 224.617188 113.53125 224.324219 113.589844 224.019531 113.589844 C 223.71875 113.589844 223.425781 113.53125 223.144531 113.414062 C 222.863281 113.296875 222.617188 113.132812 222.402344 112.917969 C 222.1875 112.703125 222.019531 112.457031 221.902344 112.175781 C 221.789062 111.894531 221.730469 111.601562 221.730469 111.296875 C 221.730469 110.996094 221.789062 110.703125 221.902344 110.421875 C 222.019531 110.140625 222.1875 109.894531 222.402344 109.679688 C 222.617188 109.464844 222.863281 109.300781 223.144531 109.183594 C 223.425781 109.066406 223.71875 109.007812 224.019531 109.007812 C 224.324219 109.007812 224.617188 109.066406 224.898438 109.183594 C 225.179688 109.300781 225.425781 109.464844 225.640625 109.679688 C 225.855469 109.894531 226.019531 110.140625 226.136719 110.421875 C 226.253906 110.703125 226.3125 110.996094 226.3125 111.296875 Z M 226.3125 111.296875 " fill-opacity="1" fill-rule="nonzero"/><path stroke-linecap="butt" transform="matrix(0.845467, 0, 0, 0.844993, 0.140939, 35.181816)" fill="none" stroke-linejoin="round" d="M 163.232237 156.970013 L 163.232237 158.467808 L 161.730663 158.467808 " stroke="#38356e" stroke-width="0.5" stroke-opacity="1" stroke-miterlimit="4"/><path fill="#38356e" d="M 134.308594 169.300781 L 131.738281 169.300781 L 131.738281 168.875 L 134.308594 168.875 M 129.167969 169.300781 L 126.597656 169.300781 L 126.597656 168.875 L 129.167969 168.875 M 124.027344 169.300781 L 121.457031 169.300781 L 121.457031 168.875 L 124.027344 168.875 M 118.886719 169.300781 L 116.316406 169.300781 L 116.316406 168.875 L 118.886719 168.875 M 113.746094 169.300781 L 111.175781 169.300781 L 111.175781 168.875 L 113.746094 168.875 M 108.605469 169.300781 L 106.035156 169.300781 L 106.035156 168.875 L 108.605469 168.875 M 103.464844 169.300781 L 100.894531 169.300781 L 100.894531 168.875 L 103.464844 168.875 M 98.324219 169.300781 L 95.753906 169.300781 L 95.753906 168.875 L 98.324219 168.875 M 93.183594 169.300781 L 90.613281 169.300781 L 90.613281 168.875 L 93.183594 168.875 M 88.042969 169.300781 L 85.472656 169.300781 L 85.472656 168.875 L 88.042969 168.875 M 82.902344 169.300781 L 80.332031 169.300781 L 80.332031 168.875 L 82.902344 168.875 M 77.761719 169.300781 L 75.191406 169.300781 L 75.191406 168.875 L 77.761719 168.875 " fill-opacity="1" fill-rule="nonzero"/><path stroke-linecap="butt" transform="matrix(0.845467, 0, 0, 0.844993, 0.140939, 35.181816)" fill="none" stroke-linejoin="round" d="M 85.709454 158.467808 L 84.20788 158.467808 L 84.20788 156.970013 " stroke="#38356e" stroke-width="0.5" stroke-opacity="1" stroke-miterlimit="4"/><path fill="#38356e" d="M 71.125 165.148438 L 71.125 162.480469 L 71.550781 162.480469 L 71.550781 165.148438 M 71.125 159.808594 L 71.125 157.140625 L 71.550781 157.140625 L 71.550781 159.808594 M 71.125 154.46875 L 71.125 151.800781 L 71.550781 151.800781 L 71.550781 154.46875 M 71.125 149.128906 L 71.125 146.457031 L 71.550781 146.457031 L 71.550781 149.128906 M 71.125 143.789062 L 71.125 141.117188 L 71.550781 141.117188 L 71.550781 143.789062 M 71.125 138.449219 L 71.125 135.777344 L 71.550781 135.777344 L 71.550781 138.449219 M 71.125 133.109375 L 71.125 130.4375 L 71.550781 130.4375 L 71.550781 133.109375 M 71.125 127.769531 L 71.125 125.097656 L 71.550781 125.097656 L 71.550781 127.769531 " fill-opacity="1" fill-rule="nonzero"/><path stroke-linecap="butt" transform="matrix(0.845467, 0, 0, 0.844993, 0.140939, 35.181816)" fill="none" stroke-linejoin="round" d="M 84.20788 103.238957 L 84.20788 101.741163 L 85.709454 101.741163 " stroke="#38356e" stroke-width="0.5" stroke-opacity="1" stroke-miterlimit="4"/><path fill="#38356e" d="M 75.175781 120.941406 L 77.746094 120.941406 L 77.746094 121.363281 L 75.175781 121.363281 M 80.316406 120.941406 L 82.886719 120.941406 L 82.886719 121.363281 L 80.316406 121.363281 M 85.457031 120.941406 L 88.027344 120.941406 L 88.027344 121.363281 L 85.457031 121.363281 M 90.597656 120.941406 L 93.167969 120.941406 L 93.167969 121.363281 L 90.597656 121.363281 M 95.738281 120.941406 L 98.308594 120.941406 L 98.308594 121.363281 L 95.738281 121.363281 M 100.878906 120.941406 L 103.449219 120.941406 L 103.449219 121.363281 L 100.878906 121.363281 M 106.019531 120.941406 L 108.589844 120.941406 L 108.589844 121.363281 L 106.019531 121.363281 M 111.160156 120.941406 L 113.730469 120.941406 L 113.730469 121.363281 L 111.160156 121.363281 M 116.300781 120.941406 L 118.871094 120.941406 L 118.871094 121.363281 L 116.300781 121.363281 M 121.441406 120.941406 L 124.011719 120.941406 L 124.011719 121.363281 L 121.441406 121.363281 M 126.582031 120.941406 L 129.152344 120.941406 L 129.152344 121.363281 L 126.582031 121.363281 M 131.722656 120.941406 L 134.292969 120.941406 L 134.292969 121.363281 L 131.722656 121.363281 " fill-opacity="1" fill-rule="nonzero"/><path stroke-linecap="butt" transform="matrix(0.845467, 0, 0, 0.844993, 0.140939, 35.181816)" fill="none" stroke-linejoin="round" d="M 161.730663 101.741163 L 163.232237 101.741163 L 163.232237 103.238957 " stroke="#38356e" stroke-width="0.5" stroke-opacity="1" stroke-miterlimit="4"/><path fill="#38356e" d="M 138.359375 125.089844 L 138.359375 127.757812 L 137.933594 127.757812 L 137.933594 125.089844 M 138.359375 130.429688 L 138.359375 133.097656 L 137.933594 133.097656 L 137.933594 130.429688 M 138.359375 135.769531 L 138.359375 138.441406 L 137.933594 138.441406 L 137.933594 135.769531 M 138.359375 141.109375 L 138.359375 143.78125 L 137.933594 143.78125 L 137.933594 141.109375 M 138.359375 146.449219 L 138.359375 149.121094 L 137.933594 149.121094 L 137.933594 146.449219 M 138.359375 151.789062 L 138.359375 154.460938 L 137.933594 154.460938 L 137.933594 151.789062 M 138.359375 157.132812 L 138.359375 159.800781 L 137.933594 159.800781 L 137.933594 157.132812 M 138.359375 162.472656 L 138.359375 165.140625 L 137.933594 165.140625 L 137.933594 162.472656 " fill-opacity="1" fill-rule="nonzero"/><path fill="#45a6af" d="M 79.148438 128.875 L 145.957031 128.875 L 145.957031 176.8125 L 79.148438 176.8125 Z M 79.148438 128.875 " fill-opacity="1" fill-rule="nonzero"/><path stroke-linecap="round" transform="matrix(0.845467, 0, 0, 0.844993, 0.140939, 35.181816)" fill="none" stroke-linejoin="round" d="M 167.348859 163.05827 L 98.401217 163.05827 L 120.130143 122.081578 L 136.458024 150.239185 L 147.528087 138.548069 Z M 167.348859 163.05827 " stroke="#ffffff" stroke-width="2" stroke-opacity="1" stroke-miterlimit="4"/><path stroke-linecap="round" transform="matrix(0.845467, 0, 0, 0.844993, 0.140939, 35.181816)" fill="none" stroke-linejoin="round" d="M 146.451574 124.32827 C 146.451574 124.772061 146.405372 125.211229 146.322207 125.645774 C 146.234423 126.080319 146.105057 126.505619 145.934108 126.912427 C 145.76778 127.323858 145.55987 127.712175 145.310378 128.082001 C 145.065506 128.447204 144.788292 128.789293 144.474117 129.103644 C 144.159941 129.417996 143.818045 129.695366 143.448426 129.940375 C 143.083429 130.190008 142.690709 130.398035 142.284129 130.564456 C 141.872929 130.735501 141.452489 130.86494 141.018187 130.94815 C 140.583886 131.035984 140.144964 131.082212 139.701423 131.082212 C 139.257881 131.082212 138.818959 131.035984 138.384658 130.94815 C 137.950357 130.86494 137.525296 130.735501 137.118716 130.564456 C 136.707516 130.398035 136.319417 130.190008 135.949799 129.940375 C 135.58018 129.695366 135.238284 129.417996 134.928729 129.103644 C 134.614553 128.789293 134.332719 128.447204 134.087847 128.082001 C 133.842975 127.712175 133.635065 127.323858 133.464117 126.912427 C 133.293168 126.505619 133.168422 126.080319 133.080638 125.645774 C 132.992854 125.211229 132.951271 124.772061 132.951271 124.32827 C 132.951271 123.884479 132.992854 123.449934 133.080638 123.015388 C 133.168422 122.57622 133.293168 122.155544 133.464117 121.748735 C 133.635065 121.337304 133.842975 120.948987 134.087847 120.579161 C 134.332719 120.209336 134.614553 119.87187 134.928729 119.557518 C 135.238284 119.243166 135.58018 118.965797 135.949799 118.716164 C 136.319417 118.471155 136.707516 118.263128 137.118716 118.092083 C 137.525296 117.925662 137.950357 117.796223 138.384658 117.708389 C 138.818959 117.625178 139.257881 117.57895 139.701423 117.57895 C 140.144964 117.57895 140.583886 117.625178 141.018187 117.708389 C 141.452489 117.796223 141.872929 117.925662 142.284129 118.092083 C 142.690709 118.263128 143.083429 118.471155 143.448426 118.716164 C 143.818045 118.965797 144.159941 119.243166 144.474117 119.557518 C 144.788292 119.87187 145.065506 120.209336 145.310378 120.579161 C 145.55987 120.948987 145.76778 121.337304 145.934108 121.748735 C 146.105057 122.155544 146.234423 122.57622 146.322207 123.015388 C 146.405372 123.449934 146.451574 123.884479 146.451574 124.32827 Z M 146.451574 124.32827 " stroke="#ffffff" stroke-width="2" stroke-opacity="1" stroke-miterlimit="4"/><path fill="#d5d4eb" d="M 153.636719 121.894531 L 236.855469 121.894531 L 236.855469 127.007812 L 153.636719 127.007812 Z M 153.636719 121.894531 " fill-opacity="1" fill-rule="nonzero"/><path fill="#d5d4eb" d="M 153.636719 131.308594 L 177.554688 131.308594 L 177.554688 133.867188 L 153.636719 133.867188 Z M 153.636719 131.308594 " fill-opacity="1" fill-rule="nonzero"/><path fill="#d5d4eb" d="M 180.816406 131.308594 L 190.523438 131.308594 L 190.523438 133.867188 L 180.816406 133.867188 Z M 180.816406 131.308594 " fill-opacity="1" fill-rule="nonzero"/><path fill="#d5d4eb" d="M 194.242188 131.308594 L 219.707031 131.308594 L 219.707031 133.867188 L 194.242188 133.867188 Z M 194.242188 131.308594 " fill-opacity="1" fill-rule="nonzero"/><path fill="#d5d4eb" d="M 221.730469 131.308594 L 236.855469 131.308594 L 236.855469 133.867188 L 221.730469 133.867188 Z M 221.730469 131.308594 " fill-opacity="1" fill-rule="nonzero"/><path fill="#d5d4eb" d="M 153.636719 137.6875 L 185.164062 137.6875 L 185.164062 140.25 L 153.636719 140.25 Z M 153.636719 137.6875 " fill-opacity="1" fill-rule="nonzero"/><path fill="#d5d4eb" d="M 188.65625 137.6875 L 200.921875 137.6875 L 200.921875 140.25 L 188.65625 140.25 Z M 188.65625 137.6875 " fill-opacity="1" fill-rule="nonzero"/><path fill="#d5d4eb" d="M 203.722656 137.6875 L 215.988281 137.6875 L 215.988281 140.25 L 203.722656 140.25 Z M 203.722656 137.6875 " fill-opacity="1" fill-rule="nonzero"/><path fill="#d5d4eb" d="M 217.882812 137.6875 L 233.457031 137.6875 L 233.457031 140.25 L 217.882812 140.25 Z M 217.882812 137.6875 " fill-opacity="1" fill-rule="nonzero"/><path fill="#d5d4eb" d="M 153.636719 144.058594 L 162.410156 144.058594 L 162.410156 146.621094 L 153.636719 146.621094 Z M 153.636719 144.058594 " fill-opacity="1" fill-rule="nonzero"/><path fill="#d5d4eb" d="M 194.792969 144.058594 L 210.550781 144.058594 L 210.550781 146.621094 L 194.792969 146.621094 Z M 194.792969 144.058594 " fill-opacity="1" fill-rule="nonzero"/><path fill="#d5d4eb" d="M 164.433594 144.058594 L 192.15625 144.058594 L 192.15625 146.621094 L 164.433594 146.621094 Z M 164.433594 144.058594 " fill-opacity="1" fill-rule="nonzero"/><path fill="#d5d4eb" d="M 153.636719 150.429688 L 173.511719 150.429688 L 173.511719 152.992188 L 153.636719 152.992188 Z M 153.636719 150.429688 " fill-opacity="1" fill-rule="nonzero"/><path fill="#d5d4eb" d="M 176.929688 150.429688 L 183.605469 150.429688 L 183.605469 152.992188 L 176.929688 152.992188 Z M 176.929688 150.429688 " fill-opacity="1" fill-rule="nonzero"/><path fill="#d5d4eb" d="M 186.71875 150.429688 L 199.839844 150.429688 L 199.839844 152.992188 L 186.71875 152.992188 Z M 186.71875 150.429688 " fill-opacity="1" fill-rule="nonzero"/><path fill="#d5d4eb" d="M 153.636719 156.800781 L 161.246094 156.800781 L 161.246094 159.363281 L 153.636719 159.363281 Z M 153.636719 156.800781 " fill-opacity="1" fill-rule="nonzero"/><path fill="#d5d4eb" d="M 164.121094 156.800781 L 180.816406 156.800781 L 180.816406 159.363281 L 164.121094 159.363281 Z M 164.121094 156.800781 " fill-opacity="1" fill-rule="nonzero"/><path fill="#d5d4eb" d="M 71.335938 181.898438 L 145.957031 181.898438 L 145.957031 204.078125 L 71.335938 204.078125 Z M 71.335938 181.898438 " fill-opacity="1" fill-rule="nonzero"/><path fill="#ffffff" d="M 73.316406 183.402344 L 87.476562 183.402344 L 87.476562 196.566406 L 73.316406 196.566406 Z M 73.316406 183.402344 " fill-opacity="1" fill-rule="nonzero"/><path fill="#ffffff" d="M 73.316406 198.527344 L 87.476562 198.527344 L 87.476562 202.441406 L 73.316406 202.441406 Z M 73.316406 198.527344 " fill-opacity="1" fill-rule="nonzero"/><path fill="#ffffff" d="M 105.527344 202.441406 L 91.367188 202.441406 L 91.367188 189.273438 L 105.527344 189.273438 Z M 105.527344 202.441406 " fill-opacity="1" fill-rule="nonzero"/><path fill="#ffffff" d="M 105.527344 187.3125 L 91.367188 187.3125 L 91.367188 183.402344 L 105.527344 183.402344 Z M 105.527344 187.3125 " fill-opacity="1" fill-rule="nonzero"/><path fill="#ffffff" d="M 110.8125 183.402344 L 124.972656 183.402344 L 124.972656 196.566406 L 110.8125 196.566406 Z M 110.8125 183.402344 " fill-opacity="1" fill-rule="nonzero"/><path fill="#ffffff" d="M 110.8125 198.527344 L 124.972656 198.527344 L 124.972656 202.441406 L 110.8125 202.441406 Z M 110.8125 198.527344 " fill-opacity="1" fill-rule="nonzero"/><path fill="#ffffff" d="M 143.015625 202.441406 L 128.855469 202.441406 L 128.855469 189.273438 L 143.015625 189.273438 Z M 143.015625 202.441406 " fill-opacity="1" fill-rule="nonzero"/><path fill="#ffffff" d="M 143.015625 187.3125 L 128.855469 187.3125 L 128.855469 183.402344 L 143.015625 183.402344 Z M 143.015625 187.3125 " fill-opacity="1" fill-rule="nonzero"/><path fill="#46a6ae" d="M 239.367188 168.523438 L 155.367188 168.523438 L 155.367188 165.683594 C 155.371094 165.449219 155.414062 165.226562 155.503906 165.015625 C 155.59375 164.800781 155.722656 164.609375 155.886719 164.449219 C 156.050781 164.285156 156.242188 164.160156 156.457031 164.070312 C 156.671875 163.984375 156.894531 163.941406 157.128906 163.941406 L 237.632812 163.941406 C 237.863281 163.941406 238.085938 163.984375 238.300781 164.074219 C 238.511719 164.164062 238.699219 164.289062 238.863281 164.453125 C 239.027344 164.613281 239.152344 164.804688 239.242188 165.015625 C 239.332031 165.230469 239.375 165.453125 239.375 165.683594 Z M 239.367188 168.523438 " fill-opacity="1" fill-rule="nonzero"/><path fill="#46a6ae" d="M 238.519531 167.644531 L 238.519531 202.40625 C 238.519531 202.597656 238.484375 202.78125 238.410156 202.957031 C 238.335938 203.136719 238.234375 203.292969 238.097656 203.425781 C 237.960938 203.5625 237.804688 203.667969 237.628906 203.742188 C 237.449219 203.8125 237.265625 203.851562 237.074219 203.851562 L 157.667969 203.851562 C 157.476562 203.851562 157.289062 203.816406 157.113281 203.742188 C 156.933594 203.671875 156.777344 203.566406 156.640625 203.429688 C 156.503906 203.296875 156.398438 203.136719 156.324219 202.960938 C 156.25 202.78125 156.214844 202.597656 156.214844 202.40625 L 156.214844 167.644531 L 238.519531 167.644531 M 239.367188 166.796875 L 155.367188 166.796875 L 155.367188 202.40625 C 155.367188 202.710938 155.425781 203.003906 155.542969 203.285156 C 155.660156 203.566406 155.828125 203.8125 156.042969 204.027344 C 156.257812 204.242188 156.507812 204.40625 156.789062 204.523438 C 157.070312 204.640625 157.363281 204.695312 157.667969 204.695312 L 237.074219 204.695312 C 237.378906 204.695312 237.671875 204.636719 237.953125 204.519531 C 238.230469 204.40625 238.480469 204.238281 238.695312 204.023438 C 238.910156 203.808594 239.074219 203.5625 239.191406 203.28125 C 239.308594 203 239.367188 202.710938 239.367188 202.40625 Z M 239.367188 166.796875 " fill-opacity="1" fill-rule="nonzero"/><path fill="#d5d4eb" d="M 158.292969 171.351562 L 168.863281 171.351562 L 168.863281 201.824219 L 158.292969 201.824219 Z M 158.292969 171.351562 " fill-opacity="1" fill-rule="nonzero"/><path fill="#d5d4eb" d="M 184.628906 171.351562 L 235.695312 171.351562 L 235.695312 201.824219 L 184.628906 201.824219 Z M 184.628906 171.351562 " fill-opacity="1" fill-rule="nonzero"/><path fill="#ffffff" d="M 187.351562 172.964844 L 233.195312 172.964844 L 233.195312 176.074219 L 187.351562 176.074219 Z M 187.351562 172.964844 " fill-opacity="1" fill-rule="nonzero"/><path fill="#ffffff" d="M 187.351562 177.941406 L 233.195312 177.941406 L 233.195312 179.5 L 187.351562 179.5 Z M 187.351562 177.941406 " fill-opacity="1" fill-rule="nonzero"/><path fill="#d5d4eb" d="M 171.078125 177.941406 L 181.644531 177.941406 L 181.644531 181.578125 L 171.078125 181.578125 Z M 171.078125 177.941406 " fill-opacity="1" fill-rule="nonzero"/><path fill="#ffffff" d="M 187.351562 180.902344 L 197.210938 180.902344 L 197.210938 199.542969 L 187.351562 199.542969 Z M 187.351562 180.902344 " fill-opacity="1" fill-rule="nonzero"/><path fill="#ffffff" d="M 211.558594 180.902344 L 221.417969 180.902344 L 221.417969 199.542969 L 211.558594 199.542969 Z M 211.558594 180.902344 " fill-opacity="1" fill-rule="nonzero"/><path fill="#ffffff" d="M 210.070312 199.964844 L 199.402344 199.964844 L 199.402344 180.476562 L 210.105469 180.476562 Z M 200.210938 199.117188 L 209.226562 199.117188 L 209.226562 181.324219 L 200.246094 181.324219 Z M 200.210938 199.117188 " fill-opacity="1" fill-rule="nonzero"/><path fill="#ffffff" d="M 233.617188 199.964844 L 222.914062 199.964844 L 222.914062 180.476562 L 233.617188 180.476562 Z M 223.757812 199.117188 L 232.769531 199.117188 L 232.769531 181.324219 L 223.757812 181.324219 Z M 223.757812 199.117188 " fill-opacity="1" fill-rule="nonzero"/><path fill="#d5d4eb" d="M 171.078125 184.535156 L 181.644531 184.535156 L 181.644531 188.167969 L 171.078125 188.167969 Z M 171.078125 184.535156 " fill-opacity="1" fill-rule="nonzero"/><path fill="#d5d4eb" d="M 171.078125 191.125 L 181.644531 191.125 L 181.644531 194.757812 L 171.078125 194.757812 Z M 171.078125 191.125 " fill-opacity="1" fill-rule="nonzero"/><path fill="#d5d4eb" d="M 171.078125 197.714844 L 181.644531 197.714844 L 181.644531 201.347656 L 171.078125 201.347656 Z M 171.078125 197.714844 " fill-opacity="1" fill-rule="nonzero"/><path fill="#4590b0" d="M 157.8125 68.957031 L 127.300781 68.957031 C 126.816406 68.957031 126.339844 69.003906 125.871094 69.097656 C 125.398438 69.191406 124.9375 69.328125 124.492188 69.515625 C 124.050781 69.699219 123.628906 69.921875 123.226562 70.191406 C 122.828125 70.457031 122.457031 70.761719 122.117188 71.101562 C 121.777344 71.441406 121.472656 71.8125 121.203125 72.210938 C 120.9375 72.613281 120.710938 73.035156 120.527344 73.480469 C 120.34375 73.921875 120.203125 74.382812 120.109375 74.851562 C 120.015625 75.324219 119.96875 75.800781 119.96875 76.28125 C 119.976562 77.476562 120.257812 78.605469 120.816406 79.664062 L 118.429688 84.003906 C 118.285156 84.253906 118.230469 84.519531 118.261719 84.800781 C 118.292969 85.085938 118.40625 85.332031 118.601562 85.542969 C 118.796875 85.75 119.03125 85.882812 119.3125 85.9375 C 119.59375 85.988281 119.863281 85.953125 120.121094 85.832031 L 125.820312 83.421875 C 126.320312 83.527344 126.828125 83.582031 127.339844 83.582031 L 157.855469 83.582031 C 158.335938 83.582031 158.8125 83.535156 159.285156 83.441406 C 159.757812 83.347656 160.214844 83.210938 160.660156 83.023438 C 161.105469 82.839844 161.527344 82.617188 161.925781 82.347656 C 162.328125 82.082031 162.699219 81.777344 163.039062 81.4375 C 163.378906 81.097656 163.683594 80.726562 163.949219 80.328125 C 164.214844 79.925781 164.441406 79.503906 164.625 79.058594 C 164.8125 78.617188 164.949219 78.15625 165.042969 77.6875 C 165.136719 77.214844 165.183594 76.738281 165.183594 76.257812 C 165.183594 75.773438 165.132812 75.296875 165.039062 74.824219 C 164.941406 74.355469 164.800781 73.894531 164.617188 73.453125 C 164.429688 73.007812 164.203125 72.585938 163.929688 72.1875 C 163.660156 71.785156 163.355469 71.417969 163.015625 71.078125 C 162.671875 70.738281 162.300781 70.4375 161.898438 70.171875 C 161.496094 69.90625 161.070312 69.679688 160.625 69.5 C 160.179688 69.316406 159.71875 69.179688 159.246094 69.089844 C 158.773438 68.996094 158.292969 68.953125 157.8125 68.957031 Z M 157.8125 68.957031 " fill-opacity="1" fill-rule="nonzero"/><path fill="#ffffff" d="M 131.246094 76.316406 C 131.246094 76.660156 131.183594 76.992188 131.050781 77.308594 C 130.917969 77.625 130.730469 77.90625 130.488281 78.148438 C 130.242188 78.394531 129.964844 78.582031 129.644531 78.710938 C 129.328125 78.84375 128.996094 78.910156 128.652344 78.910156 C 128.308594 78.910156 127.976562 78.84375 127.660156 78.710938 C 127.339844 78.582031 127.058594 78.394531 126.816406 78.148438 C 126.574219 77.90625 126.386719 77.625 126.253906 77.308594 C 126.121094 76.992188 126.054688 76.660156 126.054688 76.316406 C 126.054688 75.972656 126.121094 75.640625 126.253906 75.324219 C 126.386719 75.003906 126.574219 74.726562 126.816406 74.480469 C 127.058594 74.238281 127.339844 74.050781 127.660156 73.917969 C 127.976562 73.789062 128.308594 73.722656 128.652344 73.722656 C 128.996094 73.722656 129.328125 73.789062 129.644531 73.917969 C 129.964844 74.050781 130.242188 74.238281 130.488281 74.480469 C 130.730469 74.726562 130.917969 75.003906 131.050781 75.324219 C 131.183594 75.640625 131.246094 75.972656 131.246094 76.316406 Z M 131.246094 76.316406 " fill-opacity="1" fill-rule="nonzero"/><path fill="#ffffff" d="M 140.714844 76.316406 C 140.714844 76.660156 140.652344 76.992188 140.519531 77.308594 C 140.386719 77.625 140.199219 77.90625 139.957031 78.148438 C 139.714844 78.394531 139.433594 78.582031 139.113281 78.710938 C 138.796875 78.84375 138.464844 78.910156 138.121094 78.910156 C 137.777344 78.910156 137.445312 78.84375 137.128906 78.710938 C 136.808594 78.582031 136.527344 78.394531 136.285156 78.148438 C 136.042969 77.90625 135.855469 77.625 135.722656 77.308594 C 135.589844 76.992188 135.527344 76.660156 135.527344 76.316406 C 135.527344 75.972656 135.589844 75.640625 135.722656 75.324219 C 135.855469 75.003906 136.042969 74.726562 136.285156 74.480469 C 136.527344 74.238281 136.808594 74.050781 137.128906 73.917969 C 137.445312 73.789062 137.777344 73.722656 138.121094 73.722656 C 138.464844 73.722656 138.796875 73.789062 139.113281 73.921875 C 139.429688 74.054688 139.710938 74.242188 139.953125 74.484375 C 140.195312 74.726562 140.386719 75.007812 140.515625 75.324219 C 140.648438 75.640625 140.714844 75.972656 140.714844 76.316406 Z M 140.714844 76.316406 " fill-opacity="1" fill-rule="nonzero"/><path fill="#ffffff" d="M 150.175781 76.316406 C 150.175781 76.660156 150.113281 76.992188 149.980469 77.308594 C 149.847656 77.625 149.660156 77.90625 149.417969 78.148438 C 149.175781 78.394531 148.894531 78.582031 148.574219 78.710938 C 148.257812 78.84375 147.925781 78.910156 147.582031 78.910156 C 147.238281 78.910156 146.90625 78.84375 146.589844 78.710938 C 146.269531 78.582031 145.988281 78.394531 145.746094 78.148438 C 145.503906 77.90625 145.316406 77.625 145.183594 77.308594 C 145.050781 76.992188 144.988281 76.660156 144.988281 76.316406 C 144.988281 75.972656 145.050781 75.640625 145.183594 75.324219 C 145.316406 75.003906 145.503906 74.726562 145.746094 74.480469 C 145.988281 74.238281 146.269531 74.050781 146.589844 73.917969 C 146.90625 73.789062 147.238281 73.722656 147.582031 73.722656 C 147.925781 73.722656 148.257812 73.789062 148.574219 73.917969 C 148.894531 74.050781 149.175781 74.238281 149.417969 74.480469 C 149.660156 74.726562 149.847656 75.003906 149.980469 75.324219 C 150.113281 75.640625 150.175781 75.972656 150.175781 76.316406 Z M 150.175781 76.316406 " fill-opacity="1" fill-rule="nonzero"/><path fill="#ffffff" d="M 159.664062 76.316406 C 159.664062 76.660156 159.597656 76.992188 159.464844 77.308594 C 159.335938 77.625 159.148438 77.90625 158.902344 78.148438 C 158.660156 78.394531 158.378906 78.582031 158.0625 78.710938 C 157.742188 78.84375 157.414062 78.910156 157.066406 78.910156 C 156.722656 78.910156 156.394531 78.84375 156.074219 78.710938 C 155.757812 78.582031 155.476562 78.394531 155.234375 78.148438 C 154.988281 77.90625 154.800781 77.625 154.671875 77.308594 C 154.539062 76.992188 154.472656 76.660156 154.472656 76.316406 C 154.472656 75.972656 154.539062 75.640625 154.671875 75.324219 C 154.800781 75.003906 154.988281 74.726562 155.234375 74.480469 C 155.476562 74.238281 155.757812 74.050781 156.074219 73.917969 C 156.394531 73.789062 156.722656 73.722656 157.066406 73.722656 C 157.410156 73.722656 157.742188 73.789062 158.058594 73.921875 C 158.378906 74.054688 158.65625 74.242188 158.902344 74.484375 C 159.144531 74.726562 159.332031 75.007812 159.464844 75.324219 C 159.597656 75.640625 159.664062 75.972656 159.664062 76.316406 Z M 159.664062 76.316406 " fill-opacity="1" fill-rule="nonzero"/><path fill="#4590b0" d="M 271.136719 143.207031 L 240.625 143.207031 C 240.144531 143.207031 239.667969 143.253906 239.195312 143.347656 C 238.722656 143.441406 238.265625 143.578125 237.820312 143.761719 C 237.375 143.949219 236.953125 144.171875 236.554688 144.441406 C 236.152344 144.707031 235.78125 145.011719 235.441406 145.351562 C 235.101562 145.691406 234.796875 146.0625 234.53125 146.460938 C 234.261719 146.863281 234.039062 147.285156 233.851562 147.726562 C 233.667969 148.171875 233.53125 148.628906 233.4375 149.101562 C 233.34375 149.574219 233.296875 150.050781 233.296875 150.53125 C 233.296875 151.730469 233.578125 152.855469 234.140625 153.910156 L 231.75 158.28125 C 231.609375 158.527344 231.554688 158.792969 231.585938 159.074219 C 231.621094 159.359375 231.730469 159.605469 231.925781 159.8125 C 232.117188 160.023438 232.355469 160.15625 232.632812 160.210938 C 232.914062 160.265625 233.179688 160.234375 233.4375 160.113281 L 239.128906 157.699219 C 239.632812 157.804688 240.144531 157.859375 240.660156 157.859375 L 271.171875 157.859375 C 271.652344 157.859375 272.128906 157.8125 272.601562 157.71875 C 273.074219 157.625 273.53125 157.484375 273.976562 157.300781 C 274.421875 157.117188 274.84375 156.890625 275.246094 156.625 C 275.644531 156.355469 276.015625 156.050781 276.355469 155.710938 C 276.695312 155.371094 277 155 277.265625 154.601562 C 277.535156 154.203125 277.761719 153.78125 277.945312 153.335938 C 278.128906 152.890625 278.269531 152.433594 278.363281 151.960938 C 278.457031 151.488281 278.503906 151.011719 278.503906 150.53125 C 278.503906 150.050781 278.457031 149.570312 278.359375 149.097656 C 278.265625 148.625 278.125 148.164062 277.941406 147.71875 C 277.757812 147.273438 277.527344 146.851562 277.261719 146.449219 C 276.992188 146.050781 276.6875 145.679688 276.34375 145.339844 C 276 145 275.628906 144.695312 275.226562 144.429688 C 274.824219 144.160156 274.402344 143.9375 273.953125 143.753906 C 273.507812 143.570312 273.046875 143.433594 272.574219 143.339844 C 272.097656 143.25 271.621094 143.203125 271.136719 143.207031 Z M 271.136719 143.207031 " fill-opacity="1" fill-rule="nonzero"/><path fill="#ffffff" d="M 244.574219 150.582031 C 244.574219 150.925781 244.507812 151.257812 244.375 151.574219 C 244.246094 151.894531 244.058594 152.171875 243.8125 152.417969 C 243.570312 152.660156 243.289062 152.847656 242.972656 152.980469 C 242.652344 153.109375 242.324219 153.175781 241.976562 153.175781 C 241.632812 153.175781 241.304688 153.109375 240.984375 152.980469 C 240.667969 152.847656 240.386719 152.660156 240.144531 152.417969 C 239.898438 152.171875 239.710938 151.894531 239.582031 151.574219 C 239.449219 151.257812 239.382812 150.925781 239.382812 150.582031 C 239.382812 150.238281 239.449219 149.90625 239.582031 149.589844 C 239.710938 149.273438 239.898438 148.992188 240.144531 148.75 C 240.386719 148.503906 240.667969 148.316406 240.984375 148.1875 C 241.304688 148.054688 241.632812 147.988281 241.976562 147.988281 C 242.324219 147.988281 242.652344 148.054688 242.972656 148.1875 C 243.289062 148.316406 243.570312 148.503906 243.8125 148.75 C 244.058594 148.992188 244.246094 149.273438 244.375 149.589844 C 244.507812 149.90625 244.574219 150.238281 244.574219 150.582031 Z M 244.574219 150.582031 " fill-opacity="1" fill-rule="nonzero"/><path fill="#ffffff" d="M 254.035156 150.582031 C 254.035156 150.925781 253.96875 151.257812 253.835938 151.574219 C 253.703125 151.894531 253.515625 152.175781 253.273438 152.417969 C 253.03125 152.660156 252.75 152.847656 252.429688 152.980469 C 252.113281 153.113281 251.78125 153.175781 251.4375 153.175781 C 251.09375 153.175781 250.761719 153.109375 250.441406 152.976562 C 250.125 152.84375 249.84375 152.65625 249.601562 152.414062 C 249.359375 152.171875 249.171875 151.890625 249.039062 151.570312 C 248.90625 151.253906 248.84375 150.921875 248.84375 150.578125 C 248.84375 150.234375 248.910156 149.902344 249.042969 149.582031 C 249.175781 149.265625 249.363281 148.984375 249.609375 148.742188 C 249.851562 148.5 250.132812 148.3125 250.453125 148.183594 C 250.773438 148.050781 251.101562 147.988281 251.449219 147.988281 C 251.792969 147.988281 252.121094 148.054688 252.4375 148.1875 C 252.753906 148.320312 253.035156 148.507812 253.277344 148.75 C 253.519531 148.996094 253.707031 149.273438 253.839844 149.589844 C 253.96875 149.910156 254.035156 150.238281 254.035156 150.582031 Z M 254.035156 150.582031 " fill-opacity="1" fill-rule="nonzero"/><path fill="#ffffff" d="M 263.503906 150.582031 C 263.503906 150.925781 263.4375 151.257812 263.304688 151.574219 C 263.175781 151.894531 262.988281 152.171875 262.742188 152.417969 C 262.5 152.660156 262.21875 152.847656 261.902344 152.980469 C 261.582031 153.109375 261.253906 153.175781 260.910156 153.175781 C 260.5625 153.175781 260.234375 153.109375 259.914062 152.980469 C 259.597656 152.847656 259.316406 152.660156 259.074219 152.417969 C 258.828125 152.171875 258.640625 151.894531 258.511719 151.574219 C 258.378906 151.257812 258.3125 150.925781 258.3125 150.582031 C 258.3125 150.238281 258.378906 149.90625 258.511719 149.589844 C 258.640625 149.273438 258.828125 148.992188 259.074219 148.75 C 259.316406 148.503906 259.597656 148.316406 259.914062 148.1875 C 260.234375 148.054688 260.5625 147.988281 260.910156 147.988281 C 261.253906 147.988281 261.582031 148.054688 261.902344 148.1875 C 262.21875 148.316406 262.5 148.503906 262.742188 148.75 C 262.988281 148.992188 263.175781 149.273438 263.304688 149.589844 C 263.4375 149.90625 263.503906 150.238281 263.503906 150.582031 Z M 263.503906 150.582031 " fill-opacity="1" fill-rule="nonzero"/><path fill="#ffffff" d="M 272.957031 150.582031 C 272.957031 150.925781 272.890625 151.257812 272.757812 151.574219 C 272.625 151.894531 272.4375 152.175781 272.195312 152.417969 C 271.953125 152.660156 271.671875 152.847656 271.351562 152.980469 C 271.035156 153.113281 270.703125 153.175781 270.359375 153.175781 C 270.011719 153.175781 269.683594 153.109375 269.363281 152.976562 C 269.046875 152.84375 268.765625 152.65625 268.523438 152.414062 C 268.277344 152.171875 268.09375 151.890625 267.960938 151.570312 C 267.828125 151.253906 267.765625 150.921875 267.765625 150.578125 C 267.765625 150.234375 267.832031 149.902344 267.964844 149.582031 C 268.097656 149.265625 268.285156 148.984375 268.53125 148.742188 C 268.773438 148.5 269.054688 148.3125 269.375 148.183594 C 269.691406 148.050781 270.023438 147.988281 270.371094 147.988281 C 270.710938 147.988281 271.042969 148.054688 271.359375 148.1875 C 271.675781 148.320312 271.957031 148.507812 272.199219 148.75 C 272.441406 148.996094 272.628906 149.273438 272.757812 149.589844 C 272.890625 149.910156 272.957031 150.238281 272.957031 150.582031 Z M 272.957031 150.582031 " fill-opacity="1" fill-rule="nonzero"/><path fill="#4590b0" d="M 85.136719 201.738281 L 83.910156 202.769531 C 79.769531 206.273438 75.058594 208.640625 69.773438 209.875 L 68.015625 210.289062 C 67.570312 209.703125 67.09375 209.144531 66.585938 208.613281 C 66.074219 208.082031 65.535156 207.582031 64.964844 207.117188 C 64.398438 206.648438 63.804688 206.21875 63.183594 205.820312 C 62.566406 205.421875 61.925781 205.0625 61.261719 204.738281 C 60.601562 204.417969 59.921875 204.136719 59.226562 203.890625 C 58.535156 203.648438 57.828125 203.449219 57.109375 203.289062 C 56.390625 203.128906 55.664062 203.011719 54.933594 202.9375 C 54.199219 202.863281 53.464844 202.832031 52.730469 202.84375 C 51.992188 202.855469 51.261719 202.910156 50.53125 203.007812 C 49.800781 203.109375 49.082031 203.246094 48.367188 203.429688 C 47.652344 203.613281 46.953125 203.835938 46.265625 204.101562 C 45.582031 204.367188 44.910156 204.671875 44.261719 205.015625 C 43.609375 205.359375 42.980469 205.738281 42.375 206.15625 C 41.769531 206.574219 41.191406 207.023438 40.636719 207.511719 C 40.082031 207.996094 39.5625 208.511719 39.070312 209.058594 C 38.574219 209.605469 38.117188 210.179688 37.691406 210.78125 C 37.269531 211.382812 36.878906 212.003906 36.527344 212.652344 C 36.175781 213.296875 35.863281 213.960938 35.589844 214.644531 C 35.316406 215.328125 35.085938 216.023438 34.894531 216.734375 C 34.703125 217.445312 34.554688 218.164062 34.445312 218.894531 C 34.339844 219.621094 34.273438 220.351562 34.253906 221.085938 C 34.234375 221.824219 34.257812 222.558594 34.320312 223.289062 C 34.386719 224.023438 34.496094 224.75 34.648438 225.46875 C 34.796875 226.1875 34.988281 226.898438 35.222656 227.59375 C 35.457031 228.292969 35.734375 228.972656 36.046875 229.640625 C 36.363281 230.304688 36.714844 230.949219 37.105469 231.574219 C 37.496094 232.195312 37.921875 232.796875 38.382812 233.367188 C 38.84375 233.941406 39.335938 234.488281 39.859375 235.003906 C 40.382812 235.519531 40.9375 236.003906 41.519531 236.453125 C 42.101562 236.90625 42.707031 237.320312 43.335938 237.699219 C 43.96875 238.078125 44.617188 238.421875 45.289062 238.722656 C 45.960938 239.027344 46.644531 239.289062 47.347656 239.511719 C 48.046875 239.734375 48.761719 239.917969 49.484375 240.054688 C 50.207031 240.195312 50.933594 240.289062 51.667969 240.34375 C 52.402344 240.398438 53.136719 240.40625 53.875 240.375 C 54.609375 240.34375 55.339844 240.265625 56.066406 240.148438 C 56.792969 240.027344 57.507812 239.867188 58.21875 239.664062 C 58.925781 239.460938 59.617188 239.21875 60.296875 238.933594 C 60.976562 238.648438 61.636719 238.324219 62.277344 237.964844 C 62.917969 237.601562 63.535156 237.203125 64.128906 236.769531 C 64.722656 236.335938 65.289062 235.867188 65.828125 235.367188 C 66.367188 234.863281 66.875 234.335938 67.351562 233.773438 C 67.828125 233.214844 68.269531 232.625 68.675781 232.011719 C 69.085938 231.402344 69.457031 230.765625 69.789062 230.109375 C 70.121094 229.453125 70.414062 228.78125 70.667969 228.089844 C 70.921875 227.398438 71.132812 226.695312 71.304688 225.980469 C 71.476562 225.265625 71.605469 224.542969 71.691406 223.8125 C 71.777344 223.082031 71.820312 222.347656 71.820312 221.613281 C 71.820312 221.316406 71.820312 221.03125 71.820312 220.765625 L 73.511719 219.574219 C 76.503906 217.5 79.089844 215.003906 81.273438 212.089844 C 83.460938 209.175781 85.128906 205.992188 86.285156 202.542969 C 86.347656 202.386719 86.359375 202.226562 86.308594 202.066406 C 86.261719 201.90625 86.171875 201.777344 86.03125 201.679688 C 85.894531 201.582031 85.742188 201.539062 85.574219 201.550781 C 85.40625 201.5625 85.261719 201.625 85.136719 201.738281 Z M 85.136719 201.738281 " fill-opacity="1" fill-rule="nonzero"/><path fill="#ffffff" d="M 54.402344 210.070312 L 56.9375 215.222656 C 57.179688 215.703125 57.5625 215.984375 58.089844 216.070312 L 63.777344 216.914062 C 64.066406 216.957031 64.320312 217.074219 64.539062 217.261719 C 64.761719 217.449219 64.917969 217.679688 65.007812 217.953125 C 65.097656 218.230469 65.105469 218.507812 65.039062 218.789062 C 64.96875 219.070312 64.832031 219.3125 64.625 219.515625 L 60.507812 223.53125 C 60.125 223.90625 59.980469 224.355469 60.066406 224.882812 L 61.039062 230.542969 C 61.089844 230.832031 61.0625 231.109375 60.953125 231.378906 C 60.84375 231.648438 60.671875 231.867188 60.433594 232.039062 C 60.199219 232.210938 59.9375 232.304688 59.644531 232.324219 C 59.355469 232.34375 59.082031 232.285156 58.824219 232.148438 L 53.753906 229.480469 C 53.277344 229.226562 52.800781 229.226562 52.324219 229.480469 L 47.25 232.148438 C 46.992188 232.285156 46.71875 232.34375 46.429688 232.324219 C 46.140625 232.304688 45.875 232.210938 45.640625 232.039062 C 45.40625 231.867188 45.234375 231.648438 45.125 231.378906 C 45.015625 231.109375 44.984375 230.832031 45.035156 230.542969 L 46.007812 224.882812 C 46.097656 224.355469 45.949219 223.90625 45.566406 223.53125 L 41.449219 219.515625 C 41.242188 219.3125 41.105469 219.070312 41.039062 218.789062 C 40.96875 218.507812 40.980469 218.230469 41.066406 217.953125 C 41.15625 217.679688 41.3125 217.449219 41.535156 217.261719 C 41.753906 217.074219 42.007812 216.957031 42.296875 216.914062 L 47.984375 216.070312 C 48.515625 215.984375 48.898438 215.703125 49.136719 215.222656 L 51.671875 210.070312 C 51.800781 209.8125 51.992188 209.609375 52.234375 209.457031 C 52.480469 209.304688 52.75 209.230469 53.039062 209.230469 C 53.324219 209.230469 53.59375 209.304688 53.839844 209.457031 C 54.085938 209.609375 54.273438 209.8125 54.402344 210.070312 Z M 54.402344 210.070312 " fill-opacity="1" fill-rule="nonzero"/><path fill="#45a6af" d="M 11.394531 153.023438 L 60.5 153.023438 L 60.5 165.699219 L 11.394531 165.699219 Z M 11.394531 153.023438 " fill-opacity="1" fill-rule="nonzero"/><path fill="#ffffff" d="M 28.675781 155.050781 L 25.613281 163.503906 L 23.265625 163.503906 L 21.363281 158.28125 L 19.402344 163.511719 L 17.050781 163.511719 L 14.007812 155.0625 L 16.316406 155.0625 L 18.308594 160.765625 L 20.371094 155.0625 L 22.445312 155.0625 L 24.457031 160.765625 L 26.511719 155.0625 Z M 28.675781 155.050781 " fill-opacity="1" fill-rule="nonzero"/><path fill="#ffffff" d="M 43.160156 155.050781 L 40.105469 163.503906 L 37.746094 163.503906 L 35.851562 158.28125 L 33.890625 163.511719 L 31.542969 163.511719 L 28.496094 155.0625 L 30.804688 155.0625 L 32.792969 160.765625 L 34.863281 155.0625 L 36.9375 155.0625 L 38.9375 160.765625 L 40.992188 155.0625 Z M 43.160156 155.050781 " fill-opacity="1" fill-rule="nonzero"/><path fill="#ffffff" d="M 57.648438 155.050781 L 54.597656 163.503906 L 52.238281 163.503906 L 50.34375 158.28125 L 48.382812 163.511719 L 46.03125 163.511719 L 42.988281 155.0625 L 45.296875 155.0625 L 47.285156 160.765625 L 49.355469 155.0625 L 51.445312 155.0625 L 53.449219 160.765625 L 55.503906 155.0625 Z M 57.648438 155.050781 " fill-opacity="1" fill-rule="nonzero"/><path stroke-linecap="round" transform="matrix(0.845467, 0, 0, 0.844993, 0.140939, 35.181816)" fill="none" stroke-linejoin="round" d="M 10.228811 139.458765 L 16.378333 139.458765 " stroke="#ffffff" stroke-width="2" stroke-opacity="1" stroke-miterlimit="4"/><path stroke-linecap="round" transform="matrix(0.845467, 0, 0, 0.844993, 0.140939, 35.181816)" fill="none" stroke-linejoin="round" d="M 10.228811 154.459821 L 16.378333 154.459821 " stroke="#ffffff" stroke-width="2" stroke-opacity="1" stroke-miterlimit="4"/><path stroke-linecap="round" transform="matrix(0.845467, 0, 0, 0.844993, 0.140939, 35.181816)" fill="none" stroke-linejoin="round" d="M 13.310502 139.458765 L 13.310502 154.459821 " stroke="#ffffff" stroke-width="2" stroke-opacity="1" stroke-miterlimit="4"/><path fill="#222042" d="M 148.011719 153.53125 L 143.710938 152.382812 L 139.40625 151.226562 L 140.566406 155.527344 L 141.714844 159.828125 L 144.074219 157.46875 L 148.984375 162.386719 L 150.566406 160.796875 L 145.652344 155.890625 Z M 148.011719 153.53125 " fill-opacity="1" fill-rule="nonzero"/></svg>